<svg width="178" height="53" viewBox="0 0 178 53" fill="none" xmlns="http://www.w3.org/2000/svg">
<path d="M167.266 15.7082H176.822V48.4339H167.266V15.7082ZM172.044 12.3702C170.255 12.3702 168.793 11.8466 167.659 10.7994C166.568 9.70854 166.022 8.39952 166.022 6.87232C166.022 5.30149 166.568 3.99247 167.659 2.94525C168.793 1.85439 170.255 1.30897 172.044 1.30897C173.789 1.30897 175.207 1.85439 176.298 2.94525C177.433 3.99247 178 5.30149 178 6.87232C178 8.39952 177.433 9.70854 176.298 10.7994C175.207 11.8466 173.789 12.3702 172.044 12.3702Z" fill="#363636"/>
<path d="M142.381 37.6997C142.599 38.5288 142.948 39.2051 143.428 39.7287C143.952 40.2087 144.563 40.5578 145.261 40.7759C145.959 40.9941 146.679 41.1032 147.421 41.1032C148.774 41.1032 149.821 40.8632 150.563 40.3832C151.304 39.9033 151.675 39.2924 151.675 38.5506C151.675 37.8088 151.392 37.2634 150.824 36.9143C150.301 36.5216 149.603 36.2162 148.73 35.998C147.857 35.7362 146.941 35.4962 145.981 35.278C144.89 35.0162 143.668 34.7108 142.316 34.3617C140.963 33.969 139.676 33.4454 138.454 32.7909C137.232 32.0927 136.229 31.1764 135.443 30.0419C134.658 28.8638 134.265 27.4021 134.265 25.6567C134.265 23.6495 134.811 21.8605 135.902 20.2897C136.992 18.7189 138.541 17.4971 140.549 16.6244C142.556 15.7081 144.934 15.25 147.683 15.25C151.086 15.25 153.857 15.9481 155.995 17.3444C158.133 18.7407 159.639 20.7042 160.511 23.235L152.199 25.3294C151.981 24.7622 151.653 24.3259 151.217 24.0204C150.781 23.6713 150.235 23.4314 149.581 23.3005C148.97 23.1259 148.359 23.0387 147.748 23.0387C146.614 23.0387 145.719 23.2568 145.065 23.6932C144.41 24.1295 144.083 24.6749 144.083 25.3294C144.083 25.7658 144.214 26.1367 144.476 26.4421C144.781 26.7476 145.174 26.9875 145.654 27.1621C146.177 27.3366 146.766 27.4893 147.421 27.6202C148.119 27.7511 148.861 27.9257 149.646 28.1439C150.955 28.4493 152.286 28.8202 153.639 29.2565C155.035 29.6929 156.322 30.2819 157.5 31.0237C158.722 31.7219 159.682 32.6818 160.38 33.9036C161.122 35.0817 161.515 36.6089 161.558 38.4851C161.558 40.405 161.013 42.1722 159.922 43.7867C158.831 45.3575 157.239 46.6011 155.144 47.5174C153.05 48.4337 150.497 48.8919 147.486 48.8919C143.865 48.8919 140.832 48.1501 138.389 46.6666C135.945 45.183 134.396 42.8922 133.742 39.7942L142.381 37.6997Z" fill="#363636"/>
<path d="M110.795 15.7082H119.5L120.155 20.028C120.984 18.8935 121.966 17.9554 123.1 17.2136C124.278 16.4282 125.566 15.9046 126.962 15.6428C128.402 15.381 129.973 15.4028 131.674 15.7082V24.7405C130.54 24.3478 129.318 24.2387 128.009 24.4132C126.7 24.5441 125.456 24.9805 124.278 25.7223C123.1 26.4204 122.14 27.4676 121.398 28.8639C120.7 30.2602 120.351 32.0274 120.351 34.1655V48.4338H110.795V15.7082Z" fill="#363636"/>
<path d="M96.313 48.4337L95.6585 44.3758C94.524 45.772 93.3023 46.8629 91.9932 47.6483C90.6842 48.4337 88.917 48.8264 86.6917 48.8264C84.6845 48.8264 82.8737 48.4774 81.2592 47.7792C79.6448 47.0374 78.3576 45.9684 77.3976 44.5721C76.4813 43.1758 76.0231 41.4959 76.0231 39.5324C76.0231 36.827 76.9831 34.5799 78.903 32.7909C80.8665 31.0019 83.8991 29.8892 88.0007 29.4529L95.6585 28.602V26.4421C95.6585 25.7003 95.2876 24.9804 94.5458 24.2822C93.8477 23.5404 92.735 23.1696 91.2078 23.1696C89.8552 23.1696 88.677 23.5186 87.6735 24.2168C86.7135 24.9149 86.059 25.9185 85.7099 27.2275L77.5285 24.2822C78.4885 21.3587 80.1684 19.1334 82.5683 17.6062C85.0118 16.0354 88.0225 15.25 91.6005 15.25C96.0512 15.25 99.4329 16.3626 101.745 18.588C104.058 20.8133 105.214 23.8022 105.214 27.5548V48.4337H96.313ZM95.6585 34.4926L89.5715 35.2126C88.3498 35.3871 87.4116 35.7798 86.7571 36.3907C86.1463 36.9579 85.8408 37.6779 85.8408 38.5506C85.8408 39.3796 86.1899 40.0778 86.888 40.645C87.5862 41.2123 88.5461 41.4959 89.7679 41.4959C90.9896 41.4959 92.0369 41.2559 92.9096 40.7759C93.7822 40.2523 94.4586 39.5324 94.9385 38.616C95.4185 37.6561 95.6585 36.478 95.6585 35.0817V34.4926Z" fill="#363636"/>
<path d="M61.0657 16.1009C61.0657 14.3992 60.5203 13.1338 59.4295 12.3048C58.3386 11.4757 56.7896 11.0612 54.7824 11.0612H44.2448V21.1407H54.717C56.7241 21.1407 58.2731 20.7262 59.364 19.8971C60.4985 19.0681 61.0657 17.8027 61.0657 16.1009ZM34.0998 48.4339V2.61799H56.5496C59.7349 2.61799 62.4184 3.1416 64.6001 4.18882C66.7818 5.19241 68.4399 6.61052 69.5744 8.44316C70.7525 10.2322 71.3416 12.3048 71.3416 14.661C71.3416 16.7118 70.9489 18.4354 70.1635 19.8317C69.4217 21.1843 68.3745 22.2752 67.0218 23.1042C65.7128 23.8896 64.2074 24.4351 62.5057 24.7405V25.2641C64.5565 25.5259 66.3236 26.0932 67.8072 26.9659C69.2908 27.8385 70.4253 29.0385 71.2107 30.5657C71.9961 32.0492 72.3888 33.8601 72.3888 35.9981C72.3888 38.4416 71.7997 40.6015 70.6216 42.4778C69.4435 44.3541 67.7418 45.8158 65.5164 46.863C63.2911 47.9103 60.5639 48.4339 57.335 48.4339H34.0998ZM44.2448 39.9907H55.6987C57.7495 39.9907 59.3422 39.5325 60.4767 38.6162C61.6548 37.6999 62.2439 36.369 62.2439 34.6237C62.2439 32.791 61.633 31.4384 60.4112 30.5657C59.1895 29.6494 57.5532 29.1912 55.5024 29.1912H44.2448V39.9907Z" fill="#363636"/>
<rect width="26.1805" height="26.1805" fill="#F06318"/>
<rect y="26.1805" width="26.1805" height="26.1805" fill="#060606"/>
</svg>
