<svg width="245" height="72" viewBox="0 0 245 72" fill="none" xmlns="http://www.w3.org/2000/svg">
<path d="M230.002 21.5988H243.142V66.5988H230.002V21.5988ZM236.572 17.0088C234.112 17.0088 232.102 16.2888 230.542 14.8488C229.042 13.3488 228.292 11.5488 228.292 9.44883C228.292 7.28883 229.042 5.48883 230.542 4.04883C232.102 2.54883 234.112 1.79883 236.572 1.79883C238.972 1.79883 240.922 2.54883 242.422 4.04883C243.982 5.48883 244.762 7.28883 244.762 9.44883C244.762 11.5488 243.982 13.3488 242.422 14.8488C240.922 16.2888 238.972 17.0088 236.572 17.0088Z" fill="white"/>
<path d="M195.784 51.8388C196.084 52.9788 196.564 53.9088 197.224 54.6288C197.944 55.2888 198.784 55.7688 199.744 56.0688C200.704 56.3688 201.694 56.5188 202.714 56.5188C204.574 56.5188 206.014 56.1888 207.034 55.5288C208.054 54.8688 208.564 54.0288 208.564 53.0088C208.564 51.9888 208.174 51.2388 207.394 50.7587C206.674 50.2188 205.714 49.7988 204.514 49.4988C203.314 49.1388 202.054 48.8088 200.734 48.5088C199.234 48.1488 197.554 47.7288 195.694 47.2488C193.834 46.7088 192.064 45.9888 190.384 45.0888C188.704 44.1288 187.324 42.8688 186.244 41.3088C185.164 39.6888 184.624 37.6787 184.624 35.2788C184.624 32.5188 185.374 30.0588 186.874 27.8988C188.374 25.7388 190.504 24.0588 193.264 22.8588C196.024 21.5988 199.294 20.9688 203.074 20.9688C207.754 20.9688 211.564 21.9288 214.504 23.8488C217.444 25.7688 219.514 28.4688 220.714 31.9488L209.284 34.8288C208.984 34.0487 208.534 33.4488 207.934 33.0288C207.334 32.5488 206.584 32.2188 205.684 32.0388C204.844 31.7988 204.004 31.6788 203.164 31.6788C201.604 31.6788 200.374 31.9788 199.474 32.5787C198.574 33.1788 198.124 33.9287 198.124 34.8288C198.124 35.4288 198.304 35.9388 198.664 36.3588C199.084 36.7788 199.624 37.1088 200.284 37.3488C201.004 37.5888 201.814 37.7987 202.714 37.9788C203.674 38.1588 204.694 38.3988 205.774 38.6988C207.574 39.1188 209.404 39.6288 211.264 40.2288C213.184 40.8288 214.954 41.6388 216.574 42.6588C218.254 43.6188 219.574 44.9388 220.534 46.6188C221.554 48.2388 222.094 50.3388 222.154 52.9188C222.154 55.5588 221.404 57.9888 219.904 60.2088C218.404 62.3688 216.214 64.0788 213.334 65.3388C210.454 66.5988 206.944 67.2288 202.804 67.2288C197.824 67.2288 193.654 66.2088 190.294 64.1688C186.934 62.1288 184.804 58.9788 183.904 54.7188L195.784 51.8388Z" fill="white"/>
<path d="M152.351 21.599H164.321L165.221 27.539C166.361 25.979 167.711 24.689 169.271 23.669C170.891 22.589 172.661 21.869 174.581 21.509C176.561 21.149 178.721 21.179 181.061 21.599V34.019C179.501 33.479 177.821 33.329 176.021 33.569C174.221 33.749 172.511 34.349 170.891 35.369C169.271 36.329 167.951 37.769 166.931 39.689C165.971 41.609 165.491 44.039 165.491 46.979V66.599H152.351V21.599Z" fill="white"/>
<path d="M132.437 66.5988L131.537 61.0187C129.977 62.9387 128.297 64.4388 126.497 65.5188C124.697 66.5988 122.267 67.1388 119.207 67.1388C116.447 67.1388 113.957 66.6588 111.737 65.6988C109.517 64.6788 107.747 63.2088 106.427 61.2888C105.167 59.3688 104.537 57.0587 104.537 54.3587C104.537 50.6387 105.857 47.5487 108.497 45.0888C111.197 42.6288 115.367 41.0987 121.007 40.4987L131.537 39.3288V36.3588C131.537 35.3388 131.027 34.3488 130.007 33.3888C129.047 32.3688 127.517 31.8588 125.417 31.8588C123.557 31.8588 121.937 32.3388 120.557 33.2988C119.237 34.2588 118.337 35.6388 117.857 37.4388L106.607 33.3888C107.927 29.3688 110.237 26.3088 113.537 24.2088C116.897 22.0487 121.037 20.9688 125.957 20.9688C132.077 20.9688 136.727 22.4988 139.907 25.5588C143.087 28.6188 144.677 32.7287 144.677 37.8888V66.5988H132.437ZM131.537 47.4287L123.167 48.4188C121.487 48.6588 120.197 49.1988 119.297 50.0388C118.457 50.8188 118.037 51.8087 118.037 53.0087C118.037 54.1487 118.517 55.1088 119.477 55.8888C120.437 56.6688 121.757 57.0587 123.437 57.0587C125.117 57.0587 126.557 56.7287 127.757 56.0687C128.957 55.3487 129.887 54.3588 130.547 53.0988C131.207 51.7788 131.537 50.1588 131.537 48.2388V47.4287Z" fill="white"/>
<path d="M83.9697 22.1386C83.9697 19.7986 83.2197 18.0586 81.7197 16.9186C80.2197 15.7786 78.0897 15.2086 75.3297 15.2086H60.8397V29.0686H75.2397C77.9997 29.0686 80.1297 28.4986 81.6297 27.3586C83.1897 26.2186 83.9697 24.4786 83.9697 22.1386ZM46.8897 66.5986V3.59863H77.7597C82.1397 3.59863 85.8297 4.31863 88.8297 5.75863C91.8297 7.13863 94.1097 9.08863 95.6697 11.6086C97.2897 14.0686 98.0997 16.9186 98.0997 20.1586C98.0997 22.9786 97.5597 25.3486 96.4797 27.2686C95.4597 29.1286 94.0197 30.6286 92.1597 31.7686C90.3597 32.8486 88.2897 33.5986 85.9497 34.0186V34.7386C88.7697 35.0986 91.1997 35.8786 93.2397 37.0786C95.2797 38.2786 96.8397 39.9286 97.9197 42.0286C98.9997 44.0686 99.5397 46.5586 99.5397 49.4986C99.5397 52.8586 98.7297 55.8286 97.1097 58.4086C95.4897 60.9886 93.1497 62.9986 90.0897 64.4386C87.0297 65.8786 83.2797 66.5986 78.8397 66.5986H46.8897ZM60.8397 54.9886H76.5897C79.4097 54.9886 81.5997 54.3586 83.1597 53.0986C84.7797 51.8386 85.5897 50.0086 85.5897 47.6086C85.5897 45.0886 84.7497 43.2286 83.0697 42.0286C81.3897 40.7686 79.1397 40.1386 76.3197 40.1386H60.8397V54.9886Z" fill="white"/>
<rect width="36" height="36" fill="#F06318"/>
<rect y="36" width="36" height="36" fill="white"/>
</svg>
