
<svg xmlns="http://www.w3.org/2000/svg" version="1.1" xmlns:xlink="http://www.w3.org/1999/xlink" preserveAspectRatio="none" x="0px" y="0px" width="150px" height="22px" viewBox="0 0 150 22">
<defs>
<g id="Layer0_0_FILL">
<path fill="#FFFFFF" stroke="none" d="
M 54.65 7.7
Q 54.65 4.35 52.4 2.4 50.1 0.5 46.1 0.5
L 38.2 0.5 38.2 21.5 40.45 21.5 40.45 14.85 47.75 14.75 52.55 21.5 55 21.5 49.85 14.3
Q 54.65 12.75 54.65 7.7
M 52.45 7.7
Q 52.45 10.2 50.8 11.55 49.15 12.95 46 12.95
L 40.45 12.95 40.45 2.4 46 2.4
Q 49.15 2.4 50.8 3.8 52.45 5.15 52.45 7.7
M 89.3 4.8
L 90.7 3.4
Q 87.9 0.3 83 0.3 78.25 0.3 75.15 3.35 72 6.4 72 11 72 15.6 75.15 18.65 78.25 21.7 83 21.7 87.9 21.7 90.7 18.6
L 89.3 17.2
Q 86.85 19.7 83.1 19.7 79.25 19.7 76.75 17.2 74.2 14.75 74.2 11 74.2 7.25 76.75 4.8 79.25 2.3 83.1 2.3 86.85 2.3 89.3 4.8
M 124.8 0.5
L 124.8 9.85 111.65 9.85 111.65 0.5 109.4 0.5 109.4 21.5 111.65 21.5 111.65 11.8 124.8 11.8 124.8 21.5 127 21.5 127 0.5 124.8 0.5
M 150 21.5
L 150 0.5 147.75 0.5 147.75 21.5 150 21.5 Z"/>

<path fill="#FFD200" stroke="none" d="
M 22.2 22
L 25 22 12.5 0 0 22 2.85 22 12.5 4.7 22.2 22 Z"/>
</g>
</defs>

<g transform="matrix( 1, 0, 0, 1, 0,0) ">
<use xlink:href="#Layer0_0_FILL"/>
</g>
</svg>
