
<svg xmlns="http://www.w3.org/2000/svg" version="1.1" xmlns:xlink="http://www.w3.org/1999/xlink" preserveAspectRatio="none" x="0px" y="0px" width="150px" height="22px" viewBox="0 0 150 22">
<defs>
<g id="Layer0_0_FILL">
<path fill="#000000" stroke="none" d="
M 381.95 73.45
L 374.05 73.45 374.05 94.45 376.3 94.45 376.3 87.8 383.6 87.7 388.4 94.45 390.85 94.45 385.7 87.25
Q 390.5 85.7 390.5 80.65 390.5 77.3 388.25 75.35 385.95 73.45 381.95 73.45
M 381.85 85.9
L 376.3 85.9 376.3 75.35 381.85 75.35
Q 385 75.35 386.65 76.75 388.3 78.1 388.3 80.65 388.3 83.15 386.65 84.5 385 85.9 381.85 85.9
M 485.85 73.45
L 483.6 73.45 483.6 94.45 485.85 94.45 485.85 73.45
M 445.25 73.45
L 445.25 94.45 447.5 94.45 447.5 84.75 460.65 84.75 460.65 94.45 462.85 94.45 462.85 73.45 460.65 73.45 460.65 82.8 447.5 82.8 447.5 73.45 445.25 73.45
M 418.95 75.25
Q 422.7 75.25 425.15 77.75
L 426.55 76.35
Q 423.75 73.25 418.85 73.25 414.1 73.25 411 76.3 407.85 79.35 407.85 83.95 407.85 88.55 411 91.6 414.1 94.65 418.85 94.65 423.75 94.65 426.55 91.55
L 425.15 90.15
Q 422.7 92.65 418.95 92.65 415.1 92.65 412.6 90.15 410.05 87.7 410.05 83.95 410.05 80.2 412.6 77.75 415.1 75.25 418.95 75.25 Z"/>

<path fill="#FFD200" stroke="none" d="
M 338.7 94.95
L 348.35 77.65 358.05 94.95 360.85 94.95 348.35 72.95 335.85 94.95 338.7 94.95 Z"/>
</g>
</defs>

<g transform="matrix( 1, 0, 0, 1, -335.85,-72.95) ">
<use xlink:href="#Layer0_0_FILL"/>
</g>
</svg>
