<svg width="158" height="20" viewBox="0 0 158 20" fill="none" xmlns="http://www.w3.org/2000/svg">
<path d="M123.43 0.00814004C119.66 -0.118039 115.586 2.05104 113.653 6.13485C112.453 8.44012 111.538 11.0058 110.929 13.5254C110.875 13.7465 110.824 13.9685 110.777 14.1913C110.717 14.5498 110.712 15.0095 110.744 15.4781C110.893 17.4609 112.653 19.8584 115.556 19.9945H118.996C122.765 20.1197 126.838 17.9496 128.772 13.8658C129.972 11.5606 130.886 8.99291 131.495 6.47533C131.549 6.25101 131.601 6.0287 131.647 5.80838C131.711 5.44887 131.715 4.99122 131.68 4.52156C131.532 2.53774 129.771 0.142331 126.87 0.00713862H123.429L123.43 0.00814004ZM58.8049 0.190399L60.3461 19.8003H63.4365H63.4184H63.6007C63.8972 19.7907 64.187 19.7104 64.4462 19.5662C64.7054 19.422 64.9264 19.218 65.0908 18.9711H65.0928L77.6927 0.191401H74.4341L65.4083 13.6706L64.3488 0.192402H58.8039L58.8049 0.190399ZM79.9449 0.190399L72.7136 19.8003H78.2645L85.4928 0.191401H79.9449V0.190399ZM92.9684 0.190399C87.9823 0.250484 85.7792 5.79837 88.5031 9.35142C89.8851 11.0388 91.8579 12.7883 92.9724 14.6359C93.6785 15.6354 92.9234 17.3017 91.5745 17.3177H82.7709L81.8597 19.8003H93.0055C97.3747 19.7873 100.331 14.6429 97.3987 10.6973C96.0458 8.69849 93.8998 7.33355 92.63 5.38078C91.8759 4.36233 92.634 2.68995 93.9979 2.67193H102.192L103.104 0.190399H92.9684ZM106.945 0.190399L99.719 19.8013H105.268L112.497 0.191401H106.945V0.190399ZM136.906 0.190399L129.646 19.8003H132.506L137.509 6.28506L137.534 6.52741L142.028 18.6647C142.164 18.9862 142.387 19.2631 142.673 19.4639C142.958 19.6646 143.294 19.7812 143.642 19.8003H146.257L153.52 0.191401H150.66L145.753 13.4442L140.527 0.191401H136.905L136.906 0.190399ZM124.698 2.03502C125.744 2.11513 126.575 2.99539 126.575 4.0629C126.583 4.32528 126.538 4.58464 126.44 4.82198L122.773 14.8082C122.033 16.7249 120.313 17.8996 118.27 17.9597H117.729C117.218 17.9189 116.742 17.6877 116.394 17.3118C116.046 16.9359 115.852 16.4429 115.851 15.9308C115.842 15.6702 115.889 15.4107 115.988 15.1697L119.653 5.1835C120.394 3.26677 122.114 2.09511 124.16 2.03602H124.698V2.03502Z" fill="#363636" fill-opacity="0.4"/>
<path d="M7.3677 0.194386L0.137421 19.8043H6.0308L9.48871 10.4259H16.5047L13.0468 19.8043H17.6503C18.4294 19.8043 19.0984 19.3126 19.3698 18.6266C19.3728 18.6166 19.3758 18.6136 19.3798 18.6086L26.1694 0.193384H20.276L17.4921 7.74412H10.4761L13.2601 0.193384H7.3677V0.194386ZM29.9137 0.194386L22.6855 19.8043H28.5758L35.8061 0.194386H29.9137ZM39.8148 0.194386L32.5855 19.8043H38.4769L41.2489 12.2836L42.7209 11.153L46.6295 18.7297L46.6315 18.7197L46.6415 18.7377C46.8028 19.0726 47.0605 19.3516 47.3815 19.539C47.7025 19.7263 48.0722 19.8135 48.4431 19.7892C48.4291 19.7892 48.413 19.7993 48.398 19.7993H53.4011L47.1773 7.72909L56.9942 0.192383H52.591L42.9873 7.56586L45.7062 0.192383H39.8148V0.194386Z" fill="#363636"/>
<path d="M157.863 1.92674C157.863 3.01929 157.005 3.87551 155.89 3.87551C154.786 3.87551 153.907 3.01929 153.907 1.92674C153.907 0.857218 154.786 0 155.89 0C157.005 0 157.863 0.857218 157.863 1.92674ZM154.4 1.92674C154.4 2.78396 155.033 3.46492 155.902 3.46492C156.748 3.46492 157.37 2.78396 157.37 1.93775C157.37 1.08154 156.748 0.387551 155.89 0.387551C155.032 0.387551 154.4 1.08154 154.4 1.92674ZM155.584 2.93617H155.139V1.01144C155.383 0.967829 155.631 0.947709 155.88 0.951352C156.242 0.951352 156.407 1.01144 156.548 1.09355C156.609 1.14541 156.657 1.21033 156.69 1.28349C156.722 1.35665 156.737 1.43617 156.735 1.51616C156.735 1.72846 156.571 1.89169 156.335 1.96179V1.98582C156.524 2.05592 156.63 2.19812 156.689 2.45649C156.748 2.74991 156.783 2.86708 156.829 2.93717H156.348C156.289 2.86708 156.254 2.69082 156.195 2.46851C156.16 2.25621 156.043 2.16307 155.797 2.16307H155.584V2.93717V2.93617ZM155.596 1.84462H155.807C156.054 1.84462 156.254 1.76251 156.254 1.56222C156.254 1.38697 156.125 1.2698 155.843 1.2698C155.727 1.2698 155.643 1.27982 155.596 1.29284V1.84362V1.84462Z" fill="#363636" fill-opacity="0.4"/>
</svg>
