<svg width="122" height="40" viewBox="0 0 122 40" fill="none" xmlns="http://www.w3.org/2000/svg">
<path fill-rule="evenodd" clip-rule="evenodd" d="M11.9751 12.0713C5.8009 12.0713 0.824463 17.0477 0.824463 23.0373C0.824463 29.0269 5.8009 34.0034 11.9751 34.0034C18.1494 34.0034 23.1251 29.0269 23.1251 23.0373C23.1251 17.0477 18.1494 12.0713 11.9751 12.0713ZM11.9751 32.8049C7.36729 32.8049 3.58929 28.3824 3.58929 22.946C3.58929 17.4163 7.36793 12.9931 11.9751 12.9931C16.5823 12.9931 20.361 17.4163 20.361 22.946C20.361 28.3824 16.583 32.8049 11.9751 32.8049Z" fill="#363636" fill-opacity="0.4"/>
<path fill-rule="evenodd" clip-rule="evenodd" d="M8.28912 31.6983C10.5007 26.0773 16.9516 30.3165 17.7808 33.4499C19.5318 38.795 22.7572 39.8088 26.2586 36.4907C23.0332 42.665 17.1355 39.4396 15.7531 36.3074C13.9101 30.9624 11.9751 28.1969 8.28912 31.6983Z" fill="#363636" fill-opacity="0.4"/>
<path fill-rule="evenodd" clip-rule="evenodd" d="M41.3712 8.20121V18.7067C41.3712 19.4439 41.4638 19.8131 41.6478 19.9971C41.8324 20.1811 42.293 20.2731 42.8463 20.2731V20.6423C42.293 20.8269 41.7405 21.0103 41.1872 21.2869C40.542 21.4715 39.8974 21.7481 39.1596 22.0241H38.9756V19.7198C38.2384 20.6417 37.5012 21.2862 36.856 21.6555C36.1188 22.0234 35.3816 22.208 34.4598 22.208C33.538 22.208 32.7088 21.9314 32.0636 21.5622C31.4183 21.1942 30.8658 20.5484 30.4972 19.9038C30.3125 19.4432 30.2205 19.074 30.1286 18.5214C30.0366 18.0608 30.0366 17.3236 30.0366 16.3098V10.0436C30.0366 9.49099 29.9439 9.21373 29.668 9.02976C29.484 8.93777 29.0228 8.84578 28.2862 8.75315V8.20057H32.4328V15.9412C32.4328 17.8762 32.6168 19.1666 33.0774 19.8118C33.538 20.4564 34.3671 20.733 35.5656 20.733C36.2102 20.733 36.8554 20.5484 37.5006 20.1804C38.0532 19.7198 38.6064 19.1666 38.975 18.3374V10.5968C38.975 9.85959 38.8823 9.30637 38.6984 9.12239C38.5137 8.84578 38.0532 8.75379 37.4079 8.75379H37.316V8.20121H41.3712ZM45.8871 21.1029V17.3242H46.5316C46.8082 18.7987 47.2688 19.8125 47.822 20.457C48.3746 21.1029 49.0198 21.4708 49.9417 21.4708C50.7709 21.4708 51.4161 21.1942 51.9686 20.6417C52.4292 20.1804 52.7058 19.5358 52.7058 18.706C52.7058 18.0614 52.5212 17.5082 52.1526 17.1396C51.784 16.679 51.0468 16.1258 49.941 15.5726C48.282 14.7434 47.1762 14.0982 46.7156 13.5456C46.255 12.993 46.071 12.2558 46.071 11.5186C46.071 10.4128 46.5316 9.49164 47.3608 8.84642C48.098 8.20121 49.2038 7.83261 50.5862 7.83261C51.2314 7.83261 51.876 7.9246 52.5212 8.10922C53.1664 8.2932 53.8117 8.47782 54.4562 8.84642V12.1638H53.8117C53.627 11.058 53.2591 10.1368 52.6139 9.39965C51.9686 8.75443 51.2314 8.38583 50.3096 8.38583C49.6651 8.38583 49.1118 8.57045 48.6506 8.93841C48.19 9.30701 48.0054 9.85959 48.0054 10.4128C48.0054 11.242 48.6506 12.0712 49.941 12.7164C50.033 12.8084 50.1256 12.8084 50.2176 12.9004C50.3096 12.993 50.5862 13.085 50.9548 13.269C53.719 14.7434 55.0094 16.2178 55.0094 17.7842C55.0094 19.074 54.5489 20.1804 53.535 20.9176C52.6132 21.7468 51.3234 22.1148 49.7564 22.1148C49.0192 22.1148 48.4666 22.0228 47.7288 21.9314C47.0848 21.7475 46.5316 21.4708 45.8871 21.1029ZM59.1567 1.56639C59.1567 1.1058 59.3407 0.736556 59.6173 0.460588C59.9859 0.0919867 60.3545 0 60.8151 0C61.2757 0 61.6449 0.0919867 62.0129 0.460588C62.2895 0.737199 62.4741 1.1058 62.4741 1.56639C62.4741 2.02698 62.2895 2.39558 62.0129 2.76418C61.6449 3.0408 61.2757 3.22478 60.8151 3.22478C60.3545 3.22478 59.9859 3.04015 59.7093 2.76418C59.3407 2.39558 59.1567 2.02698 59.1567 1.56639ZM62.2895 7.83261V19.4432C62.2895 20.1804 62.3828 20.733 62.5661 20.9176C62.8427 21.1022 63.3033 21.1942 64.0411 21.1942V21.8388H58.0509V21.1942C58.6961 21.1942 59.1567 21.0096 59.4333 20.8263C59.6179 20.5484 59.7099 19.9038 59.7099 18.8906V11.8872C59.7099 11.2427 59.6179 10.7814 59.4333 10.5048C59.2487 10.2282 58.8807 9.95223 58.2355 9.67562V9.30702C58.8807 9.12304 59.5253 8.93841 60.0785 8.66244C60.7237 8.47782 61.2763 8.10987 61.9215 7.83325H62.2895V7.83261ZM66.7133 21.1942C67.5425 21.1022 68.0038 21.0096 68.1871 20.8263C68.3717 20.6417 68.4637 20.1804 68.4637 19.2592V11.8872C68.4637 11.2427 68.3717 10.7814 68.0957 10.5048C67.9111 10.2282 67.5432 9.95223 66.9899 9.67562V9.30702C67.6345 9.12304 68.2804 8.93841 68.8329 8.66244C69.4246 8.4038 70.0084 8.12728 70.5833 7.83325H70.8612V10.3215C71.6904 9.39965 72.427 8.75443 73.0728 8.38647C73.7174 8.01787 74.5466 7.8339 75.3758 7.8339C76.9428 7.8339 78.048 8.29449 78.7858 9.3083C79.4317 10.3221 79.7996 11.8885 79.7996 14.1001V20.0904C79.7996 20.4583 79.8916 20.8276 80.0762 20.9196C80.2609 21.1042 80.7208 21.1962 81.55 21.1962L81.6433 21.8407H75.8376V21.1962C76.5748 21.1962 77.0361 21.1042 77.2194 20.9196C77.3127 20.8276 77.404 20.5503 77.404 20.0904V13.3616C77.404 11.9799 77.2194 10.8734 76.6668 10.2282C76.2056 9.49099 75.4697 9.21438 74.4552 9.21438C73.626 9.21438 72.9802 9.399 72.4276 9.7676C71.783 10.1362 71.3218 10.6894 70.8619 11.426V19.4432C70.8619 20.2724 70.9538 20.733 71.2298 20.9176C71.4144 21.1022 71.8744 21.1942 72.6116 21.1942V21.8388H66.714L66.7133 21.1942ZM92.2381 11.7026C92.6074 11.7026 92.884 11.7026 93.0686 11.518C93.2519 11.3334 93.3452 11.1494 93.3452 10.7808C93.3452 10.1356 93.0686 9.58234 92.516 9.21374C91.9622 8.75315 91.2256 8.47654 90.3038 8.47654C90.2118 8.47654 90.0272 8.47654 89.9358 8.56917V7.83196H90.765C92.3321 7.83196 93.7138 8.29256 94.8196 9.12175C96.0181 10.0436 96.5713 10.9648 96.5713 11.9786C96.5713 12.1625 96.5713 12.3472 96.478 12.4392C96.386 12.5311 96.2947 12.5311 96.0181 12.5311H89.9358V11.702L92.2381 11.7026ZM89.9352 22.208V19.9964C90.3964 20.1804 90.949 20.1804 91.5936 20.1804C92.6994 20.1804 93.6212 19.9038 94.5424 19.3512C95.3716 18.798 96.0174 17.9688 96.3854 16.955L97.03 17.1396C96.4774 18.706 95.6482 19.9964 94.5424 20.8263C93.3452 21.7475 91.9615 22.208 90.3964 22.208H89.9352ZM89.9352 8.56981C89.198 8.6618 88.4601 8.93841 87.9076 9.399C87.263 9.95158 86.8018 10.7814 86.5258 11.7032H89.9358V12.5324H86.3412C86.2492 13.177 86.2492 13.6382 86.1578 14.0068V14.8367C86.1578 16.4031 86.6178 17.6928 87.7249 18.7067C88.3694 19.3519 89.1066 19.7205 89.9365 19.9971V22.2087C88.1848 22.1154 86.803 21.4715 85.6972 20.2724C84.4068 18.9833 83.7622 17.3242 83.7622 15.3892C83.7622 13.085 84.4068 11.2426 85.6972 9.85959C86.7111 8.6618 88.1848 8.01659 89.9365 7.83261V8.56981H89.9352ZM99.6108 21.1029V17.3242H100.255C100.625 18.7987 100.993 19.8125 101.546 20.457C102.098 21.1029 102.836 21.4708 103.665 21.4708C104.495 21.4708 105.232 21.1942 105.693 20.6417C106.246 20.1804 106.522 19.5358 106.522 18.706C106.522 18.0614 106.338 17.5082 105.97 17.1396C105.508 16.679 104.771 16.1258 103.758 15.5726C102.006 14.7434 100.993 14.0982 100.531 13.5456C100.06 12.9746 99.8002 12.2588 99.7948 11.5186C99.7948 10.4128 100.255 9.49164 101.085 8.84642C101.914 8.20121 103.02 7.83261 104.311 7.83261C105.047 7.83261 105.692 7.9246 106.337 8.10922C106.983 8.2932 107.627 8.47782 108.18 8.84642V12.1638H107.535C107.442 11.058 107.074 10.1368 106.43 9.39965C105.784 8.75443 105.047 8.38583 104.125 8.38583C103.388 8.38583 102.835 8.57045 102.374 8.93841C102.006 9.30701 101.729 9.85959 101.729 10.4128C101.729 11.242 102.374 12.0712 103.757 12.7164C103.849 12.8084 103.94 12.8084 103.94 12.9004C104.125 12.993 104.401 13.085 104.769 13.269C107.441 14.7434 108.825 16.2178 108.825 17.7842C108.825 19.074 108.364 20.1804 107.35 20.9176C106.336 21.7468 105.046 22.1148 103.48 22.1148C102.834 22.1148 102.19 22.0228 101.544 21.9314C100.869 21.7337 100.22 21.4555 99.6108 21.1029ZM111.959 21.1029V17.3242H112.605C112.882 18.7987 113.342 19.8125 113.896 20.457C114.448 21.1029 115.093 21.4708 116.014 21.4708C116.844 21.4708 117.489 21.1942 118.041 20.6417C118.503 20.1804 118.779 19.5358 118.779 18.706C118.779 18.0614 118.594 17.5082 118.226 17.1396C117.857 16.679 117.12 16.1258 116.014 15.5726C114.355 14.7434 113.25 14.0982 112.788 13.5456C112.328 12.993 112.144 12.2558 112.144 11.5186C112.144 10.4128 112.605 9.49164 113.434 8.84642C114.263 8.20121 115.277 7.83261 116.66 7.83261C117.304 7.83261 117.95 7.9246 118.595 8.10922C119.239 8.2932 119.885 8.47782 120.53 8.84642V12.1638H119.885C119.793 11.058 119.333 10.1368 118.687 9.39965C118.042 8.75443 117.305 8.38583 116.384 8.38583C115.738 8.38583 115.185 8.57045 114.725 8.93841C114.264 9.30701 114.08 9.85959 114.08 10.4128C114.08 11.242 114.725 12.0712 116.015 12.7164C116.108 12.8084 116.199 12.8084 116.291 12.9004L117.028 13.269C119.794 14.7434 121.176 16.2178 121.176 17.7842C121.176 19.074 120.623 20.1804 119.609 20.9176C118.686 21.7468 117.397 22.1148 115.831 22.1148C115.185 22.1148 114.54 22.0228 113.803 21.9314C113.158 21.7475 112.605 21.4708 111.959 21.1029Z" fill="#363636"/>
<path fill-rule="evenodd" clip-rule="evenodd" d="M34.2758 27.1838V33.5427C34.2758 34.0039 34.3678 34.2799 34.4598 34.3718C34.6444 34.4651 34.9204 34.5565 35.3816 34.5565V34.7411C34.921 34.8331 34.5524 35.0177 34.0912 35.109C33.6306 35.2937 33.1694 35.3857 32.7094 35.5703H32.5248V34.1885C31.9722 34.7411 31.419 35.1097 30.9584 35.3857C30.3941 35.5745 29.8024 35.668 29.2074 35.6623C28.5622 35.6623 28.0089 35.5703 27.4564 35.2943C26.9958 35.0177 26.5345 34.7417 26.3506 34.2805C26.1659 34.0039 26.0739 33.7279 26.0739 33.4513C25.982 33.1747 25.982 32.7141 25.982 32.1609V28.2896C25.982 28.013 25.89 27.8297 25.7053 27.737C25.6134 27.645 25.2448 27.5537 24.6915 27.5537V27.1844H27.7323V31.8849C27.7323 33.0821 27.9169 33.8199 28.1929 34.1891C28.5615 34.6491 29.1147 34.8337 29.9439 34.8337C30.4972 34.8337 30.9577 34.6491 31.4183 34.4658C31.8735 34.1948 32.2537 33.8142 32.5241 33.3587V28.6595C32.5241 28.1983 32.4321 27.9223 32.2475 27.737C32.1549 27.645 31.7869 27.5537 31.3257 27.5537H31.2337V27.1844L34.2758 27.1838ZM43.3988 29.3961C43.6754 29.3961 43.8594 29.3028 44.044 29.2114C44.136 29.1194 44.228 28.9348 44.228 28.7502C44.228 28.3822 44.044 28.013 43.5828 27.829C43.2142 27.5524 42.661 27.3678 42.0164 27.3678C41.9244 27.3678 41.8318 27.3678 41.7398 27.4598V26.9998H42.3844C43.4902 26.9998 44.504 27.2764 45.3332 27.7364C46.1624 28.289 46.623 28.8435 46.623 29.488C46.623 29.58 46.623 29.6727 46.5303 29.7647C46.4383 29.8566 46.3464 29.8566 46.1617 29.8566H41.7385V29.3967L43.3988 29.3961ZM41.7398 35.6623V34.3718C42.1084 34.4651 42.477 34.4651 42.9376 34.4651C43.7674 34.4651 44.5046 34.2805 45.1492 34.0039C45.7018 33.6346 46.163 33.0814 46.531 32.5288L46.9002 32.6215C46.5316 33.5427 45.9784 34.3718 45.0572 34.9244C44.2274 35.477 43.2142 35.6616 42.1084 35.6616L41.7398 35.6623ZM41.7398 27.4598C41.1872 27.4598 40.726 27.645 40.2654 27.9216C39.8048 28.2896 39.4356 28.7508 39.2516 29.3967H41.7398V29.8566H39.1596C39.0676 30.2259 39.0676 30.5025 38.9756 30.6858V31.2397C38.9756 32.1609 39.3442 32.9901 40.0814 33.5427C40.542 33.9106 41.0946 34.1885 41.7398 34.3718V35.6623C40.542 35.6623 39.4362 35.201 38.607 34.5565C37.6852 33.7273 37.2246 32.7135 37.2246 31.6077C37.2246 30.1326 37.6852 29.0268 38.607 28.1976C39.5052 27.4888 40.5984 27.0711 41.7405 27.0005V27.4604L41.7398 27.4598ZM54.7335 29.3961C55.0101 29.3961 55.1941 29.3028 55.2861 29.2114C55.47 29.1194 55.47 28.9348 55.47 28.7502C55.47 28.3822 55.2861 28.013 54.9175 27.829C54.4569 27.5524 53.9956 27.3678 53.3504 27.3678C53.2584 27.3678 53.0738 27.3678 52.9825 27.4598V26.9998H53.627C54.8248 26.9998 55.746 27.2764 56.6678 27.7364C57.497 28.289 57.9583 28.8435 57.9583 29.488C57.9583 29.58 57.8656 29.6727 57.8656 29.7647C57.7736 29.8566 57.6816 29.8566 57.497 29.8566H52.9818V29.3967L54.7335 29.3961ZM52.9831 35.6623V34.3718C53.3511 34.4651 53.8123 34.4651 54.1809 34.4651C54.9419 34.4642 55.6946 34.3072 56.3925 34.0039C56.9875 33.6578 57.4681 33.145 57.7749 32.5288L58.2355 32.6215C57.8669 33.5427 57.2217 34.3718 56.3925 34.9244C55.4707 35.477 54.4575 35.6616 53.3511 35.6616L52.9831 35.6623ZM52.9831 27.4604C52.5219 27.4604 51.9693 27.645 51.6007 27.9216C51.0481 28.2896 50.7715 28.7508 50.4949 29.3967H52.9831V29.8566H50.4029C50.4029 30.2259 50.3103 30.5025 50.3103 30.6858V31.2397C50.3103 32.1609 50.6789 32.9901 51.4161 33.5427C51.8767 33.9106 52.4299 34.1885 52.9831 34.3718V35.6623C51.7847 35.6623 50.7715 35.201 49.9417 34.5565C49.0198 33.7273 48.5592 32.7135 48.5592 31.6077C48.5592 30.1326 49.0198 29.0268 49.9417 28.1976C50.7709 27.553 51.7847 27.0918 52.9831 27.0005V27.4604ZM59.9859 35.109C60.5385 35.0171 60.9997 34.9244 61.0917 34.8324C61.1843 34.7404 61.2763 34.4645 61.2763 33.91V29.3961C61.2763 29.0268 61.1843 28.7502 60.9997 28.5669C60.9077 28.3822 60.6311 28.289 60.1705 28.1056V27.921C60.6311 27.7364 61.0917 27.6444 61.5529 27.4598C62.0129 27.3678 62.3821 27.1832 62.8421 26.9998H63.0267V28.4736C63.5098 27.986 64.0702 27.5815 64.6851 27.2764C65.1463 27.0918 65.6989 26.9998 66.3447 26.9998C67.4505 26.9998 68.2797 27.2764 68.8323 27.921C69.2935 28.4736 69.5695 29.488 69.5695 30.7778V34.3712C69.5695 34.6478 69.6615 34.8324 69.7528 34.9238C69.8461 35.0171 70.2141 35.0171 70.8599 35.1084V35.4764H66.6207V35.1084C67.1733 35.0164 67.5419 35.0164 67.6332 34.9238C67.7265 34.8318 67.8178 34.6472 67.8178 34.3712V30.4086C67.8178 29.4874 67.6332 28.8428 67.2653 28.4736C66.8973 28.0124 66.3441 27.829 65.6069 27.829C65.0543 27.829 64.5931 27.921 64.1318 28.1056C63.7639 28.3822 63.3026 28.6582 63.026 29.1194V34.0032C63.026 34.4645 63.118 34.8324 63.3026 34.9244C63.3959 35.0177 63.7639 35.109 64.2251 35.109V35.477H59.9859V35.109ZM72.7956 35.0177V32.7135H73.2555C73.4401 33.6346 73.7167 34.2805 74.178 34.6485C74.5459 35.0177 75.0992 35.201 75.745 35.201C76.2976 35.201 76.7588 35.109 77.2188 34.7411C77.588 34.4645 77.7714 34.0039 77.7714 33.5427C77.7714 33.1747 77.588 32.8981 77.3114 32.6215C77.0348 32.3449 76.5742 32.0689 75.7444 31.699C74.454 31.1464 73.7168 30.7778 73.3482 30.4086C73.0715 30.0406 72.8869 29.672 72.8869 29.2114C72.8869 28.5669 73.1635 28.013 73.8094 27.553C74.4539 27.1838 75.1912 27.0005 76.2043 27.0005C76.6656 27.0005 77.1268 27.0005 77.6794 27.0925C78.1406 27.2771 78.6006 27.3691 79.0611 27.645V29.58H78.5999C78.4166 28.9355 78.14 28.3829 77.6787 27.9216C77.2175 27.5537 76.6649 27.3691 76.0203 27.3691C75.4678 27.3691 75.0979 27.4611 74.8219 27.6457C74.454 27.9223 74.2693 28.1983 74.2693 28.5681C74.2693 29.0281 74.8219 29.4893 75.7444 29.9499C75.8364 29.9499 75.8364 30.0419 75.9277 30.0419C76.021 30.0419 76.2043 30.1339 76.4803 30.3185C78.5079 31.1477 79.4304 32.0702 79.4304 33.0827C79.4304 33.8199 79.0611 34.4658 78.3233 34.9257C77.6787 35.3869 76.7575 35.6629 75.5591 35.6629C75.0979 35.6629 74.6379 35.5709 74.0854 35.4783C73.6248 35.3857 73.1635 35.201 72.7956 35.0177ZM84.6821 34.0032C84.6821 34.4645 84.7754 34.8324 84.8668 34.9244C85.0514 35.0177 85.4193 35.109 85.8806 35.109V35.477H81.6413V35.109C82.1939 35.109 82.4705 35.0171 82.6552 34.8324C82.8385 34.6478 82.9318 34.2799 82.9318 33.7266V24.6962C82.9318 24.3283 82.8385 23.959 82.6552 23.867C82.5619 23.6824 82.2859 23.4991 81.8247 23.4058V23.1292C82.2859 23.0372 82.7472 22.8526 83.2077 22.7612C83.6677 22.5766 84.0369 22.392 84.4982 22.2087H84.6815L84.6821 34.0032ZM93.1606 33.8186V31.0544C92.4234 31.2391 91.7788 31.4224 91.3176 31.699V31.1464C91.8702 30.9631 92.5161 30.7785 93.2526 30.5019V28.6588C93.2526 28.2896 93.0693 28.013 92.8846 27.8297C92.7 27.645 92.3321 27.553 91.8708 27.553H91.3183V27.0918C91.6862 26.9998 92.2394 26.9998 92.7 26.9998C93.5292 26.9998 94.0818 27.0918 94.4517 27.4598C94.8196 27.829 95.0043 28.5669 95.0043 29.672V34.2792C95.0043 34.4638 95.0963 34.5558 95.0963 34.6472C95.1895 34.7404 95.3729 34.7404 95.4655 34.7404C95.6488 34.7404 95.8335 34.7404 95.9254 34.5558C96.0187 34.4638 96.0187 34.3712 96.1101 34.0946H96.478C96.478 34.5558 96.2947 34.9238 95.9254 35.2004C95.6488 35.477 95.1889 35.5696 94.7283 35.5696C94.2677 35.5696 93.8991 35.4764 93.6225 35.293C93.2533 35.0164 93.1613 34.7404 93.0699 34.3706C92.5173 34.7398 91.9628 35.1078 91.4102 35.293C91.4102 35.385 91.3183 35.385 91.3183 35.385V34.6478C91.5029 34.5558 91.7795 34.5558 92.0555 34.4645C92.3314 34.3718 92.6994 34.1885 93.1606 33.8186ZM91.3176 31.699C90.8564 31.8836 90.4884 32.0682 90.2118 32.1602C89.6592 32.5282 89.3826 32.8974 89.3826 33.266C89.3826 33.6346 89.5672 34.0032 89.8438 34.2799C90.2118 34.4645 90.673 34.6478 91.133 34.6478H91.3176V35.385C90.8791 35.5651 90.4099 35.659 89.9358 35.6616C89.29 35.6616 88.83 35.477 88.3688 35.2004C88.0008 34.9238 87.8162 34.4638 87.8162 34.0032C87.8162 33.266 88.1842 32.7128 88.922 32.2516C89.3833 31.8836 90.2124 31.515 91.3183 31.1458V31.699H91.3176ZM91.3176 27.0918V27.553C90.9496 27.645 90.673 27.7364 90.3964 27.8297C90.0272 28.013 89.8438 28.2896 89.8438 28.5669C89.8438 29.1194 89.7506 29.5794 89.5672 29.764C89.3826 30.0406 89.106 30.132 88.6448 30.132C88.3682 30.132 88.1835 30.04 88.0002 29.9486C87.9069 29.8554 87.8156 29.672 87.8156 29.3961C87.8156 28.9348 88.3682 28.3822 89.3826 27.829C90.0272 27.4604 90.673 27.2764 91.3176 27.0918ZM97.8611 35.109C98.5056 35.0171 98.8736 34.9244 98.9669 34.8324C99.1502 34.7404 99.1502 34.4645 99.1502 33.91V29.3961C99.1544 29.1092 99.0916 28.8253 98.9669 28.5669C98.7823 28.3822 98.5056 28.289 98.0444 28.1056V27.921C98.597 27.7364 99.0582 27.6444 99.4262 27.4598C99.8874 27.3678 100.349 27.1832 100.717 26.9998H100.993L100.901 28.4736C101.384 27.986 101.945 27.5815 102.56 27.2764C103.021 27.0918 103.573 26.9998 104.218 26.9998C105.324 26.9998 106.153 27.2764 106.707 27.921C107.167 28.4736 107.443 29.488 107.443 30.7778V34.3712C107.443 34.6478 107.537 34.8324 107.628 34.9238C107.813 35.0171 108.181 35.0171 108.734 35.1084L108.827 35.4764H104.495V35.1084C105.048 35.0164 105.418 35.0164 105.509 34.9238C105.694 34.8318 105.694 34.6472 105.694 34.3712V30.4086C105.694 29.4874 105.509 28.8428 105.232 28.4736C104.865 28.0124 104.311 27.829 103.482 27.829C102.93 27.829 102.468 27.921 102.007 28.1056C101.639 28.3822 101.27 28.6582 100.901 29.1194V34.0032C100.901 34.4645 100.993 34.8324 101.178 34.9244C101.362 35.0177 101.639 35.109 102.192 35.109V35.477H97.8611V35.109ZM118.226 33.8186V30.7778C118.226 29.672 118.042 28.8428 117.58 28.289C117.12 27.7364 116.383 27.4598 115.461 27.4598H115.369V26.9998H115.553C115.921 26.9998 116.29 27.0918 116.75 27.0918C117.212 27.1838 117.673 27.2764 118.225 27.4598V24.6956C118.225 24.2344 118.132 23.9584 117.949 23.7744C117.764 23.5898 117.488 23.4978 117.026 23.4052V23.1285C117.488 23.0366 118.04 22.9452 118.501 22.7606C118.961 22.576 119.423 22.3913 119.883 22.208H120.068V33.91C120.068 34.0946 120.16 34.2792 120.251 34.3712C120.344 34.4645 120.62 34.5558 121.08 34.6478V34.8324C120.528 35.0171 120.068 35.109 119.607 35.2937C119.237 35.3857 118.777 35.477 118.501 35.5703H118.224V34.3718C117.763 34.7411 117.302 35.109 116.749 35.3857C116.288 35.4776 115.828 35.6623 115.367 35.6623V34.6485C115.552 34.6485 115.735 34.7417 115.92 34.7417C116.381 34.7417 116.749 34.6485 117.21 34.4651C117.58 34.3718 117.95 34.0952 118.226 33.8186ZM115.369 27.4598C114.539 27.4598 113.802 27.8297 113.249 28.4742C112.696 29.1201 112.42 30.0413 112.42 31.1464C112.42 32.1602 112.788 32.9894 113.434 33.634C113.986 34.2799 114.631 34.5565 115.369 34.6478V35.6616H115.001C113.71 35.6616 112.696 35.2937 111.775 34.4645C110.945 33.634 110.577 32.6215 110.577 31.331C110.577 30.0406 110.945 28.9348 111.867 28.1976C112.788 27.4604 113.895 27.0912 115.369 26.9998V27.4598Z" fill="#363636" fill-opacity="0.4"/>
<path fill-rule="evenodd" clip-rule="evenodd" d="M22.9412 20.7334C23.4018 20.5487 23.863 20.3654 24.2309 20.0888C26.074 19.0743 26.9038 17.6006 26.9038 15.481C26.9038 14.1912 26.4432 13.0847 25.4294 12.1635C24.4156 11.3344 23.0332 10.7818 21.3748 10.5045C22.6646 10.1359 23.5864 9.49135 24.2309 8.84614C24.8762 8.01631 25.2448 7.18712 25.2448 6.17395C25.2448 4.33094 24.5076 3.04051 22.9405 2.21132C21.9267 1.6581 20.3603 1.2895 18.4253 1.10552V1.93471C19.1625 2.11933 19.8997 2.48794 20.4523 2.85654C21.4661 3.68573 22.0193 4.79153 22.0193 6.26593C22.0193 7.74034 21.4668 8.84614 20.3603 9.58334C19.8997 9.95194 19.1625 10.2286 18.4253 10.4132V11.4263C19.8997 11.519 21.0055 11.8869 21.7427 12.4402C22.7565 13.1774 23.3091 14.3752 23.3091 16.1262C23.3091 17.324 22.9405 18.2451 22.3873 18.983L22.9412 20.7334ZM18.426 21.5626V20.826C19.0712 20.826 19.6238 20.6414 20.177 20.5481L20.2696 21.3786C19.7164 21.4706 19.0712 21.4706 18.426 21.5626ZM18.426 1.10488C17.5961 1.01225 16.6749 0.920898 15.6611 0.920898C15.2925 0.920898 14.2794 1.01289 12.805 1.01289H8.93433V1.75009H9.11831C10.0401 1.75009 10.6853 1.84208 10.9613 2.0267C11.2379 2.30331 11.4219 2.85589 11.4219 3.77772V18.6137C11.4219 19.6276 11.2373 20.2721 10.9613 20.4567C10.6853 20.6414 10.0395 20.826 9.11831 20.826H8.93433V21.4706C9.67153 21.4706 10.6853 21.5626 11.9758 21.5626H18.426V20.826C18.1494 20.918 17.8734 20.918 17.5041 20.918C16.4903 20.918 15.7531 20.7334 15.3845 20.4567C15.0159 20.1801 14.8319 19.6276 14.8319 18.9823V11.3337H16.6749C17.3195 11.3337 17.8727 11.3337 18.426 11.4257V10.4125C17.5961 10.5965 16.6749 10.6891 15.5698 10.6891H14.8326V1.6581H15.8464C16.7676 1.6581 17.6894 1.75073 18.4266 1.93471V1.10488H18.426Z" fill="#363636"/>
</svg>
