<svg width="148" height="36" viewBox="0 0 148 36" fill="none" xmlns="http://www.w3.org/2000/svg">
<g clip-path="url(#clip0_93_874)">
<path d="M31.9909 0.853937C28.4051 0.82185 25.0185 2.63398 25.0185 2.63398C25.0185 2.63398 21.6067 4.70037 20.3604 7.79663C20.296 8.09736 13.5368 21.2067 13.5368 21.2067C4.96895 18.7292 0.826655 23.7493 0.957215 25.6869C3.02715 30.8797 13.1491 27.1857 14.1597 25.9834C14.7191 25.6834 15.0796 26.0427 15.0796 26.0427C15.0796 26.0427 17.5585 27.6931 17.8386 27.823C18.1186 27.9529 19.5299 27.7637 19.5299 27.7637C20.6275 27.6803 22.5859 25.5293 22.8231 25.5088C23.1892 25.5099 23.6306 27.8916 25.1374 27.8527C26.9453 28.2021 28.9053 26.1616 28.9053 26.1616C29.1633 25.7964 29.2613 26.0724 29.2613 26.0724C29.2197 28.3105 31.0374 27.9157 31.5753 27.8527C33.3616 27.1257 37.7366 22.8152 37.2423 24.0848C37.0703 24.4287 35.7291 26.9328 35.7291 26.9328C35.5789 27.5999 36.0555 27.5559 36.0555 27.5559L39.2002 27.5263C39.738 27.2047 42.4895 21.2795 42.1673 22.0969C43.1589 20.3023 45.4012 19.6641 45.4012 19.6641C45.6165 19.5999 45.5198 19.9013 45.5198 19.9013L41.8409 27.1999C41.7767 27.393 42.1374 27.5856 42.1374 27.5856L45.3417 27.5263C45.7723 27.4846 48.457 21.9781 48.457 21.9781C49.1876 20.5809 51.78 19.7827 51.78 19.7827C52.2532 19.6977 51.9283 20.1684 51.9283 20.1684L49.4065 25.4495C49.0232 27.8471 51.0378 27.9876 51.8987 27.8823C52.7595 27.7557 54.1593 27.2709 56.9126 25.212C57.4725 24.7836 57.5951 25.2147 57.5951 25.3012C57.6187 28.2496 60.8586 27.912 60.8586 27.912C61.8272 28.1514 65.7588 28.0587 69.0472 21.5035C67.8449 25.9551 70.2961 27.1673 70.3824 27.3187C70.4687 27.4692 71.7865 27.9294 72.2811 27.823C77.2963 28.2676 79.4017 20.4652 79.4017 20.4652C80.5303 19.6185 80.8168 19.3755 81.2709 19.1299C82.3904 19.2401 82.6909 19.2718 83.2291 19.3377C83.6593 19.4897 83.2694 19.8914 83.1399 20.0199C78.0204 24.0093 80.2676 27.0857 80.4402 27.0219C82.6805 30.0627 87.3311 24.7621 88.2134 24.6781C89.3358 29.1583 92.7502 27.2078 92.9011 27.2295C92.6002 28.1111 91.7246 30.2913 90.9726 31.7095C89.4028 33.9224 86.9376 31.4426 86.9376 31.4426L86.3145 31.413C86.0135 31.7993 86.1959 32.2437 86.1959 32.2437C86.8421 33.2786 87.6695 34.7108 90.2309 35.0622C92.8135 35.1771 94.2955 32.3326 94.2955 32.3326C94.2955 32.3326 97.9162 25.6519 98.1525 24.856C99.2495 23.869 101.153 22.4439 102.573 21.4145C103.498 21.2235 100.258 26.5068 100.022 27.2592C99.9574 27.6898 100.111 27.7044 100.111 27.7044C100.111 27.7044 102.575 27.8268 103.048 27.7637C103.521 27.7004 105.821 22.2377 106.638 21.2069C107.347 20.025 109.634 18.9223 109.634 18.9223C110.129 18.8161 109.961 19.397 109.961 19.397L106.935 25.509C106.205 28.0675 108.26 28.0808 108.626 28.0604C109.615 27.998 113.313 25.8648 113.313 25.8648C113.829 25.4787 113.818 26.1023 113.818 26.1023C113.775 26.9201 114.658 28.26 115.39 28.0899C118.016 28.3337 121.987 23.9717 122.095 24.3813C122.117 24.4676 120.612 27.4373 120.612 27.4373C120.677 27.6741 120.938 27.7933 120.938 27.7933C120.938 27.7933 123.481 27.8212 124.083 27.823C124.686 27.8248 127.427 21.2744 128.029 20.91C129.255 19.6437 130.597 19.5236 130.64 19.5453C131.092 19.5254 128.082 24.3333 127.91 25.301C127.245 28.0759 129.216 28.0306 129.216 28.0306C130.787 28.272 134.64 25.5389 134.704 25.7756C135.156 25.3253 135.209 25.8648 135.209 25.8648V26.0724C135.469 28.3118 136.781 28.0602 136.781 28.0602C138.288 28.4519 144.169 23.5209 144.169 23.5209L143.279 22.542L139.6 25.212C139.299 25.3623 139.125 25.0341 139.125 25.0341L143.249 17.0828C143.443 16.8898 143.16 16.6674 143.16 16.6674H139.452C139.194 16.9462 139.036 17.1421 139.036 17.1421L135.684 23.6694L132.005 25.4791C131.618 25.5853 131.708 25.1826 131.708 25.1826C131.708 25.1826 134.773 19.1675 135.031 18.3288C135.203 17.942 135.12 17.3202 135.12 17.3202C134.107 14.971 130.013 18.0122 129.453 18.0323C129.432 18.0538 129.958 16.9642 129.958 16.9642C130.108 16.6415 129.81 16.6378 129.81 16.6378L126.368 16.6081C126.368 16.6081 126.378 16.3636 126.249 16.5785C126.12 16.7933 123.905 20.9398 123.905 20.9398L118.357 25.1231C117.884 25.2083 118.001 24.8858 118.001 24.8858L122.066 17.0235L122.095 16.6971L118.179 16.6081L114.945 22.8385C114.773 23.0319 111.385 24.9451 111.385 24.9451C110.868 25.0947 110.851 24.6484 110.851 24.6484L113.848 18.8334C114.526 16.5647 112.048 15.8978 110.821 16.341C109.992 16.6398 109.219 16.9049 109.219 16.9049C109.219 16.9049 108.974 16.9686 109.19 16.6674C109.555 16.1518 113.343 8.65678 113.343 8.65678C113.429 8.44147 113.224 8.30073 113.224 8.30073L109.783 8.27108C109.503 8.39898 109.457 8.59748 109.457 8.59748L104.561 17.8838L100.526 20.9102C100.268 21.0817 100.259 20.7913 100.259 20.7913L102.276 16.9642V16.5782L98.6569 16.5486L98.0634 17.0232C97.654 16.1611 95.5767 16.1713 95.5119 16.1925C91.1643 16.0509 88.7177 22.2153 88.7177 22.2153C86.2986 24.3125 85.1808 24.9651 84.3862 25.0932C83.725 25.1304 83.5256 24.5886 83.5256 24.5886C82.6046 21.7668 88.3913 19.1 88.3913 19.1C88.5851 18.9927 89.419 16.4895 89.3112 16.4893C89.2034 16.4891 82.1959 16.4811 82.1313 16.4596C81.7436 16.308 79.8719 18.0695 79.3127 18.4771C77.6736 13.6729 71.3229 17.3065 70.4417 19.4561C70.0633 19.557 69.8936 19.4866 69.7 19.4857C69.7637 17.8504 69.5466 16.8307 68.5132 16.3111C67.9533 16.0084 65.6652 16.3111 65.6652 16.3111L69.5517 8.5676C69.7451 8.33127 69.3736 8.09294 69.3736 8.09294H65.8728C65.7221 8.1788 65.5464 8.38947 65.5464 8.38947C65.5464 8.38947 58.9314 21.2016 58.5444 21.8892C58.1576 22.5767 53.3226 25.1527 53.3226 25.1527C53.3651 24.6796 56.4793 19.2647 56.5864 18.2102C56.7132 15.4773 53.5897 16.341 53.5897 16.341C53.5897 16.341 51.821 17.5152 50.2076 18.3288C49.8608 15.3359 47.2405 16.3707 47.2405 16.3707L44.2737 18.2992L44.8077 16.9049L44.9265 16.3707L41.366 16.2817C40.9577 16.582 40.2388 18.2102 40.2388 18.2102L39.1113 20.287L34.038 24.1144C33.5432 24.3926 33.8006 23.7287 33.8006 23.7287C33.8006 23.7287 37.2259 17.0104 37.3014 16.9639C37.5811 16.7924 37.3609 16.3709 37.3609 16.3709L33.9192 16.341C33.9192 16.341 33.3363 17.3313 33.2073 17.4388C31.5698 15.1308 26.1661 16.0675 23.2682 22.898C22.8977 23.3545 22.6112 23.6741 22.4078 23.7584C19.0099 27.7305 17.0672 23.788 17.0672 23.788L23.1495 12.1874C23.1495 12.1874 25.9168 5.99623 27.6592 4.23611C32.0692 1.2569 33.3259 4.05819 33.3259 4.05819C33.707 4.94113 34.869 8.12857 28.8756 9.66564C28.0894 9.74331 28.3414 10.1104 28.3414 10.1104C30.0858 11.6006 32.2281 11.4457 32.2281 11.4457C34.3377 11.8604 40.054 8.71476 37.9838 3.67249C36.3684 1.5614 34.1423 0.873189 31.9909 0.853937ZM122.511 8.71631C119.369 8.83647 119.185 13.0536 122.392 13.4928C125.513 13.588 126.106 8.85572 122.511 8.71609V8.71631ZM143.902 8.71631C140.501 8.72826 140.755 13.5269 143.961 13.4928C147.168 13.2439 146.894 8.83204 143.902 8.71609V8.71631ZM31.6348 17.7057C32.6406 17.7287 32.4647 18.9338 32.2876 19.1596C32.3954 19.5256 30.537 22.6603 30.537 22.6603C28.3868 25.3448 27.3624 24.8557 27.3624 24.8557C27.3624 24.8557 26.6255 24.7535 27.1845 23.3131C27.7864 22.3032 28.9553 19.6752 30.181 18.1505C30.8265 17.8188 31.2994 17.698 31.6348 17.7057ZM65.3682 18.0022C66.4231 18.1346 65.9024 19.1 65.9024 19.1L62.9947 24.8261C62.0702 25.9646 61.2147 25.5679 61.2147 25.5679C60.7411 25.2218 61.5411 23.9064 61.5411 23.9064L64.2707 18.5661C64.8079 18.0078 65.3682 18.0022 65.3682 18.0022ZM95.6305 18.0321C96.4537 17.886 96.7878 18.5661 96.7878 18.5661C96.7878 18.5661 96.8357 18.6754 96.7283 19.2782C96.4924 20.2032 93.9394 24.6185 93.9394 24.6185C92.8644 25.6918 91.922 25.4789 91.922 25.4789C91.384 25.3266 91.5956 24.5296 91.5956 24.5296C91.5956 24.5296 93.6628 20.2903 94.6515 18.5068C95.0388 18.2226 95.3561 18.0806 95.6305 18.0321ZM75.8414 18.0618C76.2961 17.985 76.7279 18.1724 76.6424 19.1297C76.1056 20.2689 73.987 24.4539 73.557 25.0337C73.4712 25.5289 71.3076 26.3357 71.8657 24.5296C71.8657 24.5296 74.9005 18.8537 74.9217 18.5957C74.9323 18.4665 75.3868 18.1383 75.8414 18.0618ZM7.51399 22.7201C9.28783 22.6776 10.8962 23.2538 10.8962 23.2538C10.8962 23.2538 10.4812 24.6369 6.56444 25.2713C4.71358 25.1591 3.74655 25.1673 3.74589 24.5001C4.64897 23.1563 6.13425 22.7531 7.51399 22.7201Z" fill="#363636"/>
</g>
<defs>
<clipPath id="clip0_93_874">
<rect width="146.341" height="36" fill="white" transform="translate(0.829224)"/>
</clipPath>
</defs>
</svg>
