<svg width="136" height="32" viewBox="0 0 136 32" fill="none" xmlns="http://www.w3.org/2000/svg">
<g clip-path="url(#clip0_93_871)">
<path d="M14.3739 0.127965C10.9368 0.459247 7.67921 1.92241 5.24981 4.22757C2.15786 7.14009 0.432434 11.1845 0.432434 15.5463C0.432434 22.5033 4.04892 28.1764 10.0948 30.6611C12.7036 31.7377 14.7051 32.069 18.087 31.9586C20.682 31.8758 22.3798 31.5997 24.3675 30.9509C25.5546 30.5644 28.3153 29.2669 28.3153 29.1013C28.3153 29.0461 28.0392 28.4111 27.6941 27.6795L27.073 26.3406L26.2172 26.8237C24.0086 28.0246 21.9381 28.5353 18.7909 28.6458C14.0012 28.7976 10.7988 27.7623 8.07951 25.1949C5.80195 23.0554 4.47683 20.2533 4.17315 16.9405C3.64862 11.3225 6.46451 6.3809 11.3509 4.31039C12.9659 3.63402 14.4153 3.37176 16.5134 3.38556C18.8185 3.39937 20.0332 3.66163 21.8277 4.55885C23.4703 5.37325 25.527 7.40235 26.3552 9.03115C27.2524 10.7842 27.5561 12.0265 27.5561 13.9866C27.5561 15.7534 27.28 16.9681 26.5898 18.3346C25.8031 19.8944 24.2295 21.3024 22.5178 22.0063C19.9504 23.0416 16.61 22.9864 14.4015 21.8683C12.6622 20.9849 11.2957 18.8177 11.0058 16.4988L10.923 15.85H24.1743V14.4007C24.1743 9.81794 22.0347 6.65697 18.3078 5.70453C17.2173 5.42847 14.7327 5.42846 13.6285 5.71834C8.4384 7.05726 5.56729 13.5311 7.59639 19.3837C8.16233 21.0401 8.75587 21.9649 10.0948 23.3039C11.7926 25.0017 13.3524 25.8299 15.7266 26.2854C17.0931 26.5476 19.9918 26.5338 21.4274 26.2578C25.8169 25.4296 29.2263 22.3928 30.5652 18.1276C30.7447 17.5202 30.9517 16.761 31.0069 16.4298L31.1036 15.85H32.7324V20.9849C32.7324 23.9526 32.8014 26.3958 32.8842 26.7409C33.2845 28.5077 34.7062 30.2193 36.4731 31.089C37.8534 31.7515 38.9025 32 40.3932 32C42.8364 32 44.6309 31.296 46.2045 29.7224C47.2811 28.6458 47.8056 27.7209 48.0403 26.4234C48.1369 25.8989 48.1921 23.221 48.1921 19.1352V12.6752H44.4652V25.7332L44.1063 26.451C43.43 27.8176 42.1463 28.5491 40.3794 28.5491C39.4132 28.5491 39.1509 28.4939 38.4055 28.1212C37.5635 27.7071 37.1494 27.2792 36.6525 26.3406C36.4041 25.8851 36.3903 25.3882 36.3488 19.2595L36.3074 12.6752H31.0898L31.0069 12.0127C30.6066 8.86551 29.2539 6.16004 27.0316 4.02052C24.6436 1.72916 21.7449 0.459247 18.1146 0.114162C16.4858 -0.0376753 16.0717 -0.0376753 14.3739 0.127965ZM17.8385 8.87931C19.0946 9.32102 20.1713 10.6185 20.4335 12.0403L20.544 12.6752H11.0748L11.2819 11.9437C11.6684 10.6599 12.4414 9.67991 13.5456 9.08636C14.5947 8.52042 16.5548 8.4238 17.8385 8.87931ZM55.784 15.919V30.8957H57.0263V0.942365H55.784V15.919ZM94.8476 2.11565V3.28894H97.6083V0.942365H94.8476V2.11565ZM64.066 7.29192V13.0893H67.1994C70.8021 13.0893 71.7683 12.9651 72.776 12.3578C73.7284 11.778 74.1425 11.0326 74.1425 9.87316C74.1425 8.71367 73.7422 7.92688 72.8864 7.38855L72.2238 6.97444L72.6103 6.61556C73.2867 5.9806 73.4799 5.42846 73.4247 4.31039C73.3833 3.44078 73.3281 3.23373 72.9554 2.77822C72.7346 2.48834 72.2376 2.10185 71.8511 1.9086C71.1886 1.57732 71.092 1.56352 67.6273 1.52211L64.066 1.4807V7.29192ZM70.1809 4.00672C70.8987 4.37941 71.0091 4.98676 70.4984 5.59411C70.1671 5.9806 70.1395 5.9806 68.4279 6.02201L66.6887 6.07722V3.84108H68.2899C69.2285 3.84108 70.0015 3.91009 70.1809 4.00672ZM70.8297 8.57564C71.3404 8.8379 71.5889 9.41764 71.3818 9.91457C71.1196 10.5495 70.4156 10.7428 68.4141 10.7428H66.6887V8.39619H68.5935C69.8358 8.39619 70.6088 8.46521 70.8297 8.57564ZM88.0425 4.18616C85.8202 4.90394 85.3508 7.88547 87.2971 9.00354C87.6146 9.18299 88.4014 9.50046 89.0502 9.70751C90.3615 10.1216 90.5685 10.2458 90.5685 10.6185C90.5685 11.3087 89.064 11.3087 87.6974 10.6185C87.2281 10.3839 86.8002 10.1906 86.745 10.1906C86.6898 10.1906 86.3999 10.5633 86.0962 11.0188C85.4751 11.9851 85.4751 11.9575 86.8002 12.6062C87.7941 13.0893 88.7879 13.2688 89.9474 13.1998C91.8661 13.0755 92.9151 12.1921 93.0255 10.6047C93.136 9.08636 92.4596 8.35478 90.1958 7.56799C89.4919 7.31953 88.8155 7.00205 88.6775 6.85021C88.4428 6.58795 88.4428 6.56034 88.7603 6.31188C89.2434 5.91158 89.9198 6.00821 91.3415 6.68457C91.6038 6.8088 91.8384 6.89162 91.8661 6.86402C91.8937 6.83641 92.1283 6.42231 92.4044 5.95299L92.9013 5.08338L92.57 4.86253C91.4519 4.13095 89.2572 3.79967 88.0425 4.18616ZM103.82 4.18616C103.558 4.31039 103.13 4.60026 102.895 4.83492L102.439 5.27663V4.11714H99.8168V13.0893H102.439V10.4667C102.439 7.5956 102.536 7.08487 103.185 6.67077C103.599 6.3947 104.344 6.3671 104.786 6.60175C105.366 6.91923 105.476 7.49897 105.476 10.3977V13.0893H108.113L108.071 9.45905L108.03 5.81496L107.657 5.26282C107.105 4.42082 106.456 4.08954 105.283 4.02052C104.593 3.99291 104.165 4.03432 103.82 4.18616ZM112.792 4.21377C111.37 4.71069 110.349 5.87017 109.948 7.42996C109.327 9.85935 110.583 12.2749 112.82 13.0065C113.813 13.324 115.497 13.2964 116.422 12.9513C117.099 12.7028 118.313 11.8194 118.313 11.5986C118.313 11.5434 117.968 11.2121 117.568 10.8394L116.809 10.1906L116.091 10.6323C115.511 11.005 115.235 11.0879 114.586 11.0879C113.689 11.0879 113.206 10.8256 112.792 10.1492C112.64 9.90076 112.516 9.6661 112.516 9.59709C112.516 9.54187 113.924 9.50046 115.635 9.50046H118.769L118.7 8.4238C118.548 6.16004 117.554 4.72449 115.746 4.17236C114.904 3.9239 113.579 3.9377 112.792 4.21377ZM115.235 6.40851C115.58 6.62936 115.884 7.05726 116.036 7.52658L116.119 7.84406H114.324C113.151 7.84406 112.516 7.78884 112.516 7.70602C112.516 7.6232 112.599 7.38855 112.709 7.18149C113.234 6.17385 114.324 5.84257 115.235 6.40851ZM122.523 4.10334C121.129 4.47603 120.246 5.53889 120.246 6.87782C120.246 8.24436 121.005 8.98974 123.02 9.6385C124.276 10.0388 124.801 10.3149 124.801 10.5909C124.801 10.6461 124.677 10.8118 124.525 10.9498C124.125 11.3225 122.951 11.1707 121.888 10.6323C121.419 10.3839 120.991 10.1906 120.936 10.1906C120.77 10.1906 119.804 11.7228 119.873 11.9023C119.97 12.1645 121.226 12.7857 122.109 13.0203C124.249 13.5725 126.402 12.9513 126.954 11.6124C127.065 11.3639 127.147 10.7566 127.147 10.2735C127.147 9.45905 127.106 9.32102 126.706 8.87931C126.223 8.32718 125.657 8.0097 124.525 7.63701C123.324 7.25051 122.73 6.90543 122.73 6.60175C122.73 5.93919 123.862 5.91158 125.215 6.54654C126.071 6.94684 126.057 6.96064 126.678 5.73214C127.009 5.09718 127.009 5.04197 126.789 4.87633C125.96 4.28278 123.531 3.82727 122.523 4.10334ZM130.943 4.10334C129.991 4.338 129.094 5.05577 128.818 5.81496C128.597 6.3671 128.624 7.51278 128.859 7.96829C129.246 8.69987 129.95 9.15538 131.371 9.61089C132.117 9.85935 132.807 10.1078 132.89 10.163C133.18 10.3563 133.207 10.7152 132.945 10.9498C132.545 11.3087 131.385 11.1707 130.281 10.6323C129.798 10.3839 129.356 10.1906 129.328 10.1906C129.177 10.1906 128.238 11.7504 128.293 11.9023C128.39 12.1645 129.646 12.7857 130.529 13.0203C132.669 13.5725 134.822 12.9513 135.374 11.6124C135.485 11.3639 135.568 10.798 135.568 10.3563C135.568 9.01735 134.891 8.28577 133.111 7.69222C131.744 7.25051 131.15 6.91923 131.15 6.60175C131.15 5.95299 132.282 5.91158 133.621 6.53274C134.022 6.72598 134.38 6.87782 134.408 6.87782C134.477 6.87782 135.471 5.06958 135.416 5.02817C135.388 5.00056 135.098 4.84872 134.781 4.68308C133.58 4.07573 132.02 3.84108 130.943 4.10334ZM75.8265 7.5956C75.8679 10.8532 75.8817 11.1293 76.1716 11.64C76.7513 12.7167 77.621 13.2274 78.9047 13.2274C79.7881 13.2274 80.3678 13.0203 81.0166 12.482L81.4583 12.0955V13.0893H84.219V4.11714H81.4721L81.4307 7.07107C81.3893 9.74892 81.3617 10.0526 81.127 10.3149C80.5611 10.9498 79.443 10.9084 78.8771 10.2596C78.5734 9.91457 78.5596 9.80414 78.5596 7.00205V4.11714H75.7713L75.8265 7.5956ZM94.8476 8.60324V13.0893H97.4702V4.11714H94.8476V8.60324ZM84.0809 24.5462V30.6196H86.7036V28.1626C86.7174 25.4296 86.814 24.7946 87.2971 24.2977C87.9459 23.6627 89.2848 23.925 89.6023 24.767C89.6851 24.9603 89.7403 26.3544 89.7403 27.8728V30.6196H92.5286L92.4734 27.1964C92.432 24.3115 92.3906 23.7041 92.1835 23.2348C91.6728 22.0892 90.7618 21.5232 89.4229 21.5094C88.4842 21.5094 87.7664 21.7717 87.1591 22.3652L86.7036 22.8069V18.4727H84.0809V24.5462ZM116.933 24.5462V30.6196H119.556V18.4727H116.933V24.5462ZM66.7301 18.8868C64.8804 19.2595 63.8038 20.5432 63.79 22.379C63.79 23.5523 64.0108 24.0768 64.7562 24.7256C65.3359 25.2087 65.9847 25.471 68.4555 26.2026C69.0076 26.3544 69.5874 26.6167 69.7392 26.7685C70.319 27.3482 69.7944 28.1902 68.7454 28.3559C67.9586 28.4801 66.7991 28.1626 65.7776 27.5553L64.839 26.9894L64.0384 27.8728C63.6105 28.3559 63.2516 28.7976 63.2378 28.8528C63.2378 29.0737 65.0185 30.0951 65.9157 30.385C66.6749 30.6196 67.227 30.6887 68.3589 30.6887C69.753 30.6887 69.8635 30.6611 70.7745 30.2055C71.5751 29.7914 71.7959 29.5982 72.1686 28.9632C72.5689 28.3007 72.6241 28.0936 72.6241 27.224C72.6241 26.0645 72.4861 25.5952 71.9616 25.0569C71.3542 24.4081 70.5812 24.0492 68.7592 23.5109C67.7653 23.221 66.8957 22.8897 66.7301 22.7241C65.8467 21.8959 66.9371 20.9849 68.4831 21.2609C68.8282 21.3162 69.5184 21.5784 70.0291 21.8407L70.9677 22.31L71.6579 21.33L72.3619 20.3361L72.0444 20.0739C70.8573 19.0938 68.4417 18.5555 66.7301 18.8868ZM77.2897 21.6889C75.8403 22.241 74.8051 23.2348 74.3496 24.5324C74.2391 24.8774 74.1425 25.5952 74.1425 26.1611C74.1425 27.997 74.9431 29.3635 76.5167 30.2193C77.3587 30.6749 77.4415 30.6887 78.9047 30.6887C80.3126 30.6887 80.4783 30.6611 81.1408 30.2884C81.5273 30.0813 82.0242 29.7224 82.2313 29.5016L82.6178 29.1013L81.8724 28.3421C81.0718 27.5277 80.9062 27.4587 80.6163 27.8038C80.0366 28.4939 78.6562 28.6596 77.8142 28.135C76.8342 27.5415 76.4891 26.0507 77.0412 24.9603C77.6762 23.7041 79.2359 23.4143 80.3264 24.3391C80.5611 24.5324 80.7957 24.6842 80.8648 24.6842C80.9338 24.6842 81.3479 24.3115 81.8034 23.8422L82.6316 23.014L82.1485 22.5999C81.2374 21.8269 80.5473 21.5922 79.1117 21.5508C78.2559 21.5232 77.621 21.5646 77.2897 21.6889ZM97.2356 21.7717C95.3031 22.4895 94.1298 24.1182 94.116 26.1197C94.116 27.2102 94.3369 27.9556 94.889 28.77C95.8414 30.1503 97.4012 30.8405 99.3199 30.7301C101.28 30.6196 102.646 29.7638 103.433 28.1626C103.847 27.3344 103.889 27.1274 103.875 26.0645C103.875 25.1397 103.806 24.7532 103.558 24.2563C103.061 23.2348 102.37 22.5309 101.377 22.0339C100.59 21.6474 100.3 21.5784 99.2094 21.5508C98.2294 21.5094 97.8015 21.5646 97.2356 21.7717ZM100.189 24.1597C101.432 24.905 101.639 26.7547 100.59 27.8038C99.168 29.2255 96.7801 28.1764 96.7801 26.1335C96.7801 25.0155 97.277 24.2701 98.257 23.925C98.8782 23.7041 99.5683 23.787 100.189 24.1597ZM108.416 21.7579C106.277 22.5171 105.076 24.3115 105.228 26.4924C105.352 28.2317 106.291 29.5568 107.947 30.3298C108.623 30.6473 108.886 30.6887 110.169 30.6887C111.481 30.6887 111.688 30.6472 112.378 30.3022C113.413 29.7638 114.214 28.9494 114.655 27.9694C114.987 27.2378 115.028 27.0032 114.973 25.9541C114.918 24.5462 114.628 23.8146 113.744 22.9174C112.806 21.9787 111.867 21.5922 110.39 21.5508C109.438 21.5094 108.968 21.5646 108.416 21.7579ZM111.136 24.063C113.234 25.1397 112.502 28.4663 110.169 28.4663C108.513 28.4663 107.395 26.7271 108.071 25.2225C108.651 23.925 109.921 23.4419 111.136 24.063Z" fill="#363636"/>
</g>
<defs>
<clipPath id="clip0_93_871">
<rect width="135.135" height="32" fill="white" transform="translate(0.432434)"/>
</clipPath>
</defs>
</svg>
