<svg width="138" height="32" viewBox="0 0 138 32" fill="none" xmlns="http://www.w3.org/2000/svg">
<g clip-path="url(#clip0_93_861)">
<path d="M137.803 14.6523V15.3314C137.803 15.3314 137.063 15.624 137.063 16.4964L137.069 31.0664C137.069 31.5799 136.655 31.9995 136.141 31.9995H133.276L126.976 22.0561C126.976 22.0561 127.109 22.8787 127.109 23.9167V31.9995H123.619V14.6523H125.883C127.037 14.6523 127.876 15.1272 128.483 16.0823C128.997 16.8884 133.756 24.386 133.756 24.386C133.756 24.386 133.585 23.878 133.585 22.5088V14.6523H137.803ZM70.7884 14.6523V31.0664C70.7884 31.5799 70.3689 31.9995 69.8554 31.9995H66.9955L60.696 22.0561C60.696 22.0561 60.8285 22.8787 60.8285 23.9167V31.9995H57.3337V14.6523H59.5918C60.7457 14.6523 61.5849 15.1272 62.1922 16.0823C62.7056 16.8884 67.4703 24.386 67.4703 24.386C67.4703 24.386 67.2992 23.878 67.2992 22.5088V14.6523H70.7884ZM27.6194 14.6523H22.9541V21.2997H18.874V14.6523H13.4579V15.3314C13.4579 15.3314 14.1977 15.613 14.1977 16.4964V31.9995H18.874V24.4743H22.9541V31.9995H27.6194V14.6523ZM42.725 14.6523H32.3344V30.4481C32.3344 31.348 33.1901 31.9995 34.0845 31.9995H42.725C43.2384 31.9995 43.658 31.5799 43.658 31.0664V28.8304H37.6953C37.3088 28.8304 36.9941 28.5102 36.9941 28.1237V24.4743H42.3054V21.3052H36.9941V17.8269H43.6525V15.5909C43.658 15.0719 43.2384 14.6523 42.725 14.6523ZM52.5745 14.6523H47.9092V31.0664C47.9092 31.5799 48.3288 31.9995 48.8423 31.9995H52.5745V14.6523ZM118.728 14.6523H108.332V30.4481C108.332 31.3149 109.187 31.9995 110.087 31.9995H118.728C119.241 31.9995 119.661 31.5799 119.661 31.0664V28.8304H113.698C113.312 28.8304 112.997 28.5102 112.997 28.1237V24.4743H118.314V21.3052H112.997V17.8269H119.666V15.5909C119.666 15.0719 119.241 14.6523 118.728 14.6523ZM85.894 14.6523H75.4979V30.4481C75.4979 31.3149 76.3537 31.9995 77.2536 31.9995H85.894C86.4075 31.9995 86.8271 31.5799 86.8271 31.0664V28.8304H80.8644C80.4779 28.8304 80.1632 28.5102 80.1632 28.1237V24.4743H85.48V21.3052H80.1632V17.8269H86.8271V15.5909C86.8271 15.0719 86.4075 14.6523 85.894 14.6523ZM105.637 14.6523H102.269C101.458 14.6523 100.84 14.8566 100.194 15.5964C99.5531 16.3363 95.4399 21.0733 95.4399 21.0733V14.6523H90.7746V31.0664C90.7746 31.5799 91.1942 31.9995 91.7077 31.9995H95.4399V24.1375C95.4399 24.1375 98.9403 29.6089 99.5531 30.5695C100.166 31.5302 100.779 32.005 102.176 32.005H106.007L99.4593 21.769L105.637 14.6523Z" fill="#363636"/>
<path d="M4.76431 20.9696C4.53243 21.1408 4.22325 20.92 4.31159 20.6494C4.43857 20.2629 6.78502 13.0414 6.78502 13.0414L0.314347 8.33748C0.0824625 8.16633 0.203926 7.80746 0.485499 7.81298H8.47998C8.47998 7.81298 10.8319 0.591448 10.9534 0.204974C11.0417 -0.0655572 11.4227 -0.0710783 11.511 0.204974C11.6325 0.591448 13.9845 7.80746 13.9845 7.80746H21.9789C22.2605 7.80746 22.3875 8.1608 22.1501 8.33196L18.2909 11.1367H13.725L12.3116 6.79711L10.9037 11.1422H6.33781L10.0314 13.8254L8.618 18.1649C8.618 18.1705 4.9962 20.7985 4.76431 20.9696Z" fill="#363636" fill-opacity="0.4"/>
</g>
<defs>
<clipPath id="clip0_93_861">
<rect width="137.694" height="32" fill="white" transform="translate(0.153198)"/>
</clipPath>
</defs>
</svg>
