<svg width="124" height="36" viewBox="0 0 124 36" fill="none" xmlns="http://www.w3.org/2000/svg">
<g clip-path="url(#clip0_93_858)">
<path d="M13.5611 24.8087C11.7617 24.8087 9.82558 25.9171 9.82558 28.3571C9.82558 31.7687 12.6758 32.035 13.5467 32.035C14.4248 32.035 17.275 31.7687 17.275 28.3571C17.2822 25.9171 15.3532 24.8087 13.5611 24.8087ZM13.5611 30.7466C12.5606 30.7466 11.3874 30.1276 11.3874 28.3643C11.3874 27.0183 12.2583 26.1186 13.5467 26.1186C14.8422 26.1186 15.7203 27.0183 15.7203 28.3643C15.7203 30.1276 14.5543 30.7466 13.5611 30.7466ZM20.1539 31.9054H21.6366V26.1762H23.9758V24.9455H17.8148V26.1762H20.1539V31.9054ZM28.3375 24.8087C26.5381 24.8087 24.6092 25.9171 24.6092 28.3571C24.6092 31.7687 27.4594 32.035 28.3303 32.035C29.2084 32.035 32.0658 31.7687 32.0658 28.3571C32.0586 25.9171 30.1296 24.8087 28.3375 24.8087ZM28.3375 30.7466C27.337 30.7466 26.1638 30.1276 26.1638 28.3643C26.1638 26.8096 27.2506 26.1186 28.3231 26.1186C29.6258 26.1186 30.4967 27.0183 30.4967 28.3643C30.4967 30.1276 29.3379 30.7466 28.3375 30.7466ZM37.723 29.2783C38.709 29.0408 39.3712 28.2203 39.3712 27.2271C39.3712 25.3341 37.8165 24.9383 36.5138 24.9383H33.2749V31.8982H34.7576V29.6094H36.0532L37.7158 31.8982H39.5655L37.5646 29.3143L37.723 29.2783ZM36.2115 28.3858H34.7792V26.1762H36.1755C37.2695 26.1762 37.8021 26.5217 37.8021 27.2343C37.8093 28.0044 37.2839 28.3858 36.2115 28.3858ZM48.1377 30.7466C46.5471 30.7466 45.561 29.8541 45.561 28.4146C45.561 26.9176 46.4967 26.0971 48.2025 26.0971C49.0014 26.0971 49.5844 26.2338 50.0882 26.385V25.0894C49.426 24.8951 48.5983 24.8087 48.0657 24.8087C46.1944 24.8087 44.0063 25.7516 44.0063 28.4218C44.0063 30.7178 45.4818 32.035 48.0441 32.035C48.6559 32.035 49.4188 31.9558 50.1026 31.8118V30.4299C49.6708 30.5595 48.9654 30.7394 48.1737 30.7466H48.1377ZM54.9177 24.8087C53.1183 24.8087 51.1822 25.9171 51.1822 28.3571C51.1822 31.7687 54.0324 32.035 54.9033 32.035C55.7814 32.035 58.6388 31.7687 58.6388 28.3571C58.6388 25.9171 56.7099 24.8087 54.9177 24.8087ZM54.9177 30.7466C53.9173 30.7466 52.7441 30.1276 52.7441 28.3643C52.7441 26.8096 53.8309 26.1186 54.9033 26.1186C56.2061 26.1186 57.077 27.0183 57.077 28.3643C57.077 30.1276 55.911 30.7466 54.9177 30.7466ZM64.4975 29.2783C65.4836 29.0408 66.1458 28.2203 66.1458 27.2271C66.1458 25.3341 64.5911 24.9383 63.2884 24.9383H60.0495V31.8982H61.5322V29.6094H62.8277L64.4903 31.8982H66.3401L64.3392 29.3143L64.4975 29.2783ZM62.9933 28.3858H61.561V26.1762H62.9573C64.0513 26.1762 64.5839 26.5217 64.5839 27.2343C64.5839 28.0044 64.0657 28.3858 62.9933 28.3858ZM70.9609 24.9455H67.7652V31.9054H69.2479V29.9261H70.9681C72.4219 29.9261 73.9694 29.2711 73.9694 27.4286C73.9694 25.7516 72.9905 24.9455 70.9609 24.9455ZM70.8169 28.6953H69.2479V26.1762H70.7881C71.5439 26.1762 72.4147 26.313 72.4147 27.3854C72.4075 28.537 71.6086 28.6953 70.8169 28.6953ZM78.6981 24.8087C76.8988 24.8087 74.9627 25.9171 74.9627 28.3571C74.9627 31.7687 77.8128 32.035 78.6837 32.035C79.5618 32.035 82.4192 31.7687 82.4192 28.3571C82.4192 25.9171 80.4903 24.8087 78.6981 24.8087ZM78.6981 30.7466C77.6977 30.7466 76.5245 30.1276 76.5245 28.3643C76.5245 27.0183 77.3954 26.1186 78.6837 26.1186C79.9793 26.1186 80.8574 27.0183 80.8574 28.3643C80.8646 30.1276 79.6986 30.7466 78.6981 30.7466ZM88.2852 29.2783C89.2712 29.0408 89.9334 28.2203 89.9334 27.2271C89.9334 25.3341 88.3787 24.9383 87.076 24.9383H83.8371V31.8982H85.3198V29.6094H86.6153L88.278 31.8982H90.1277L88.1268 29.3143L88.2852 29.2783ZM86.7809 28.3858H85.3486V26.1762H86.7449C87.8389 26.1762 88.3715 26.5217 88.3715 27.2343C88.3715 28.0044 87.8533 28.3858 86.7809 28.3858ZM93.5177 24.9455L90.905 31.9054H92.3805L92.8484 30.6027H96.3463L96.7638 31.9054H98.4048L95.7417 24.9455H93.5177ZM93.273 29.3647L94.5686 25.9459L95.9145 29.3647H93.273ZM100.348 31.9054H101.831V26.1762H104.17V24.9455H98.0089V26.1762H100.348V31.9054ZM105.624 24.9455H107.107V31.9054H105.624V24.9455ZM112.332 24.8087C110.533 24.8087 108.604 25.9171 108.604 28.3571C108.604 31.7687 111.454 32.035 112.325 32.035C113.203 32.035 116.06 31.7687 116.06 28.3571C116.053 25.9171 114.124 24.8087 112.332 24.8087ZM112.332 30.7466C111.331 30.7466 110.158 30.1276 110.158 28.3643C110.158 26.8096 111.245 26.1186 112.317 26.1186C113.613 26.1186 114.491 27.0183 114.491 28.3643C114.491 30.1276 113.325 30.7466 112.332 30.7466ZM122.444 29.6814L119.249 24.9527H117.449V31.9054H118.903V26.8312L122.372 31.9054H123.898V24.9527H122.444V29.6814ZM1.62767 24.9455H0.101807V31.9054H1.58448V27.6373L3.8157 31.9054H4.85213L7.09055 27.6373V31.9054H8.57322V24.9455H7.04736L4.33392 29.9909L1.62767 24.9455ZM71.9685 9.63645H63.5475C63.166 9.63645 62.7414 9.60766 62.5398 9.55008C61.7913 9.34855 61.4386 8.69358 61.4386 8.02422C61.4386 7.44842 61.7553 6.75026 62.5542 6.50555C62.7917 6.43357 63.0221 6.42638 63.5115 6.42638H75.4593V3.96484H63.3172C62.8421 3.96484 62.4535 3.97924 62.1152 4.02962C60.1503 4.30312 58.7252 5.94415 58.7252 8.03141C58.7252 9.89556 59.9271 11.7381 62.0648 12.0548C62.5326 12.1268 63.2452 12.1124 63.4395 12.1124H71.6014C71.7166 12.1124 72.1268 12.1196 72.2348 12.134C73.2065 12.2707 73.7103 13.0193 73.7103 13.8542C73.7103 14.5595 73.2784 15.3656 72.3212 15.5384C72.1988 15.56 71.767 15.5744 71.623 15.5744H59.1354V18.0647H71.8174C71.9685 18.0647 72.6739 18.0575 72.8178 18.0431C75.1858 17.8272 76.4237 15.891 76.4237 13.8398C76.4237 12.0332 75.3009 9.91715 73.0121 9.68683C72.5299 9.62925 72.134 9.63645 71.9685 9.63645ZM47.8642 9.63645H39.4432C39.0617 9.63645 38.637 9.60766 38.4355 9.55008C37.687 9.34855 37.3343 8.69358 37.3343 8.02422C37.3343 7.44842 37.651 6.75026 38.4499 6.50555C38.6874 6.43357 38.9177 6.42638 39.4072 6.42638H51.355V3.96484H39.2128C38.7378 3.96484 38.3491 3.97924 38.0109 4.02962C36.046 4.30312 34.6209 5.94415 34.6209 8.03141C34.6209 9.89556 35.8228 11.7381 37.9605 12.0548C38.4283 12.1268 39.1409 12.1124 39.3352 12.1124H47.4971C47.6123 12.1124 48.0225 12.1196 48.1305 12.134C49.1022 12.2707 49.606 13.0193 49.606 13.8542C49.606 14.5595 49.1741 15.3656 48.2169 15.5384C48.0945 15.56 47.6627 15.5744 47.5187 15.5744H35.0311V18.0647H47.713C47.8642 18.0647 48.5695 18.0575 48.7135 18.0431C51.0815 17.8272 52.3194 15.891 52.3194 13.8398C52.3194 12.0332 51.1894 9.91715 48.9078 9.68683C48.4256 9.62925 48.0297 9.63645 47.8642 9.63645ZM25.1706 3.96484H27.8552V18.0575H25.1706V3.96484ZM14.8926 15.2289L3.85888 3.96484H0.101807V18.0575H2.78646V6.72147L13.8993 18.0575H17.5773V3.96484H14.8926V15.2289ZM121.206 15.2289L110.173 3.96484H106.416V18.0575H109.1V6.72147L120.213 18.0575H123.891V3.96484H121.206V15.2289ZM89.6167 3.96484L80.9078 18.0575H84.1826L85.7876 15.452H96.6054L98.2105 18.0575H101.485L92.7836 3.96484H89.6167ZM87.1192 13.2064L91.2001 6.58472L95.2739 13.2064H87.1192Z" fill="#363636"/>
</g>
<defs>
<clipPath id="clip0_93_858">
<rect width="123.796" height="36" fill="white" transform="translate(0.101807)"/>
</clipPath>
</defs>
</svg>
