<svg width="130" height="36" viewBox="0 0 130 36" fill="none" xmlns="http://www.w3.org/2000/svg">
<path fill-rule="evenodd" clip-rule="evenodd" d="M87.9622 9.9314H78.0774V12.0005C78.9011 12.0005 79.7256 12.2074 79.9305 12.6214C80.343 12.8284 80.5493 13.4486 80.5493 14.2765V17.1735H73.7531V14.2765C73.7531 13.4493 73.9594 12.8284 74.1657 12.6214C74.5768 12.2074 75.4013 12.0005 76.225 12.0005V9.9314H66.1339V12.0005C66.9576 12.0005 67.1632 12.0005 67.5744 12.2074C67.9869 12.2074 67.9869 12.6214 68.1918 12.6214C68.6044 13.2423 68.8107 13.6556 68.8107 14.2765V25.2421C68.8107 25.2421 68.6044 25.8623 68.1918 26.0693L67.5744 26.6895H66.1339V28.7593H76.2236V26.6895H74.7817C74.5755 26.2756 74.1643 26.0693 74.1643 26.0693C73.958 25.8616 73.958 25.4477 73.958 25.2421C73.7517 25.0344 73.7517 24.4149 73.7517 24.4149V20.0698H80.5479V25.2421C80.5479 25.2421 80.3416 25.8623 80.3416 26.0693C79.9291 26.0693 79.7242 26.2756 79.5179 26.6895H78.076V28.7593H87.9609V26.6895H86.519C86.3127 26.2756 86.1078 26.0693 85.6952 26.0693C85.6952 25.8616 85.4889 25.4477 85.4889 25.2421V14.2758C85.4889 13.6549 85.6952 13.2416 86.1078 12.6207C86.3127 12.2067 87.1371 11.9998 87.9609 11.9998V9.9314H87.9622ZM89.1979 9.9314V12.0005C90.0216 12.0005 90.6384 12.0005 90.8446 12.2074C91.2572 12.2074 91.4621 12.6214 91.4621 12.8284C91.8747 13.2423 91.8747 13.4493 91.8747 13.4493L92.0809 14.2765V25.2421C92.0809 25.2421 91.8747 25.8623 91.4621 26.0693L90.8446 26.6895H89.1979V28.7593H106.701L109.996 22.1381L107.937 21.3109C106.701 23.38 105.465 24.4149 103.818 25.2421C102.17 26.0693 100.523 26.2756 98.6701 26.2756C98.0513 26.2756 97.845 26.2756 97.4345 26.0693C97.2283 25.8616 97.022 25.0344 97.022 24.0002V20.0691H97.8457C99.0813 20.0691 99.7002 20.2754 100.111 20.483C100.73 21.1047 101.141 21.9319 101.141 22.9654H103.2V14.2758H101.141C101.141 15.31 100.729 16.1379 100.111 16.7588C99.7002 16.9658 99.082 17.1728 97.8457 17.1728H97.022V14.6898C97.022 13.6556 97.2283 13.4486 97.2283 12.8277C97.4345 12.6207 98.2576 12.2067 99.2876 12.2067H99.9051C101.964 12.2067 103.406 12.8277 104.642 13.6549C105.878 14.4828 106.701 15.517 107.319 16.5512L109.173 15.517L106.496 9.9307L89.1979 9.9314ZM127.706 22.1381C127.293 22.9654 126.677 24.0009 125.647 25.0344C125.028 25.4484 124.617 25.8616 123.793 26.0693C123.175 26.6895 122.352 26.6895 121.528 26.6895C120.909 26.6895 120.704 26.6895 119.88 26.2756C119.262 26.0693 118.85 25.8616 118.233 25.2421C117.82 24.6205 117.204 24.0009 116.997 22.966C116.586 22.1388 116.38 20.69 116.38 19.4488C116.38 16.7595 116.586 14.6905 117.82 13.6563C118.85 12.2081 119.88 11.7942 120.909 11.7942C122.557 11.7942 123.793 12.2081 124.823 13.4493C125.647 14.4842 126.676 15.5184 127.293 17.1735L129.559 16.5526L127.088 9.93209H125.44L125.028 10.346C124.617 10.1391 123.793 9.93209 122.968 9.51814C122.351 9.51814 121.322 9.31186 120.498 9.31186C117.409 9.31186 114.937 10.346 113.29 12.0019C111.642 13.8639 110.613 16.5532 110.613 19.4495C110.613 22.1395 111.642 24.6219 113.702 26.6909C115.144 28.5537 117.82 29.3809 120.704 29.3809C123.175 29.3809 125.44 28.5537 126.676 27.3119C128.323 26.277 129.148 24.6219 129.971 23.3807L127.706 22.1381ZM48.8347 3.31023C46.5697 1.03488 43.6867 0 39.568 0C33.8018 0 28.4475 1.86209 23.7114 5.3793C19.3871 9.31047 16.9159 13.6556 15.8859 18.6202C15.474 20.0691 15.2677 21.104 15.2677 22.1374C15.2677 26.6888 16.9152 29.7921 19.3864 32.4828C22.0632 34.7588 25.3581 36 29.4768 36C31.948 36 34.0074 35.586 36.2723 35.1728C38.1254 34.5512 40.5973 33.1037 42.0385 32.0688C44.3034 30.2061 43.0678 29.5865 41.4203 30.62C40.5966 31.2416 38.1254 32.6891 36.4779 32.896C35.036 33.1037 32.9767 33.5163 30.7117 33.5163C27.2105 33.5163 24.5337 32.6891 22.2688 30.62C20.2094 28.5509 19.3857 26.0686 19.3857 22.5514C19.3857 21.3102 19.3857 20.2754 19.5913 19.2412C20.415 14.4821 22.68 10.7579 25.9749 7.44768C29.6817 4.13744 33.8004 2.48233 38.7422 2.48233C42.0371 2.48233 44.5083 3.30954 46.3614 5.17233C48.0089 6.82744 49.0382 9.31046 49.0382 12.0005C48.8319 16.1386 47.8026 19.4481 46.3614 21.3109C44.5083 24.0009 43.0664 24.6212 42.8601 24.6212C42.2427 24.6212 42.2427 24.4149 42.2427 24.4149C42.2427 23.38 43.0664 20.4837 43.272 19.4488L46.3607 9.51814C46.3607 9.31186 46.3607 9.10418 45.7425 9.10418H41.8301C41.4183 9.10418 40.5945 9.31116 40.3882 10.1391L39.9764 10.967C38.5352 17.1742 34.6228 21.1053 33.5928 22.1388C31.9453 23.794 30.7104 24.4149 30.2978 24.4149C29.6803 24.4149 29.6803 24.0009 29.6803 23.5877C29.6803 23.38 29.6803 22.966 29.8859 21.7249L33.1809 13.6556C33.799 12.6214 33.799 11.3795 33.799 10.9663C33.799 9.51744 32.9753 8.48326 31.3278 8.48326C29.6803 8.48326 27.0028 9.10419 23.9142 11.7942C22.6786 13.4493 22.2667 14.2765 22.2667 14.2765C22.2667 14.6905 22.8842 14.6905 22.8842 14.6905C23.296 14.6905 23.9142 13.8632 24.5316 13.4493C25.3554 12.6221 26.3847 11.3802 27.2084 11.3802C27.8259 11.3802 27.8259 11.7942 27.8259 12.0012C27.8259 12.2081 27.414 12.8284 27.2084 13.6563L24.7372 19.2426C24.3253 20.4837 23.0897 22.966 23.0897 25.2428C23.0897 27.9328 25.1491 28.553 26.1791 28.553C28.8559 28.553 33.5921 26.0707 37.7114 18.8293L37.094 20.6907C36.8877 21.9332 36.2696 24.4156 36.2696 26.277C36.2696 26.8986 36.2696 28.553 38.1226 28.553C42.2413 28.553 45.33 25.4491 46.9781 23.5884C49.0375 20.6907 50.8906 18.0014 51.0968 15.5191C51.5087 13.657 51.5087 12.2088 51.5087 11.174C51.5122 7.65535 50.894 5.17233 48.8347 3.31023Z" fill="#363636"/>
<path fill-rule="evenodd" clip-rule="evenodd" d="M48.8347 3.31023C46.5697 1.03488 43.6867 0 39.568 0C33.8018 0 28.4475 1.86209 23.7114 5.3793C19.3871 9.31047 16.9159 13.6556 15.8859 18.6202C15.474 20.0691 15.2677 21.104 15.2677 22.1374C15.2677 26.6888 16.9152 29.7921 19.3864 32.4828C22.0632 34.7588 25.3581 36 29.4768 36C31.948 36 34.0074 35.586 36.2723 35.1728C38.1254 34.5512 40.5973 33.1037 42.0385 32.0688C44.3034 30.2061 43.0678 29.5865 41.4203 30.62C40.5966 31.2416 38.1254 32.6891 36.4779 32.896C35.036 33.1037 32.9767 33.5163 30.7117 33.5163C27.2105 33.5163 24.5337 32.6891 22.2688 30.62C20.2094 28.5509 19.3857 26.0686 19.3857 22.5514C19.3857 21.3102 19.3857 20.2754 19.5913 19.2412C20.415 14.4821 22.68 10.7579 25.9749 7.44768C29.6817 4.13744 33.8004 2.48233 38.7421 2.48233C42.0371 2.48233 44.5083 3.30954 46.3614 5.17233C48.0089 6.82744 49.0382 9.31046 49.0382 12.0005C48.8319 16.1386 47.8026 19.4481 46.3614 21.3109C44.5083 24.0009 42.8601 24.6212 42.8601 24.6212L42.2427 24.4149C42.2427 23.38 43.0664 20.4837 43.272 19.4488L46.3607 9.51814C46.3607 9.31186 45.7425 9.10418 45.7425 9.10418H41.8301C41.4183 9.10418 40.5945 9.31116 40.3882 10.1391L39.9764 10.967C38.5352 17.1742 34.6228 21.1053 33.5927 22.1388C31.9453 23.794 30.7104 24.4149 30.2978 24.4149C29.6803 24.4149 29.6803 23.5877 29.6803 23.5877C29.6803 23.5877 29.6803 22.966 29.8859 21.7249L33.1809 13.6556C33.799 12.6214 33.799 11.3795 33.799 10.9663C33.799 9.51744 32.9753 8.48326 31.3278 8.48326C29.6803 8.48326 27.0028 9.10419 23.9142 11.7942C22.6786 13.4493 22.2667 14.2765 22.2667 14.2765C22.2667 14.6905 22.8842 14.6905 22.8842 14.6905C23.296 14.6905 23.9142 13.8632 24.5316 13.4493C25.3554 12.6221 26.3847 11.3802 27.2084 11.3802C27.8259 11.3802 27.8259 12.0012 27.8259 12.0012C27.8259 12.0012 27.414 12.8284 27.2084 13.6563L24.7372 19.2426C24.3253 20.4837 23.0897 22.966 23.0897 25.2428C23.0897 27.9328 25.1491 28.553 26.1791 28.553C28.8559 28.553 33.5921 26.0707 37.7114 18.8293L37.094 20.6907C36.8877 21.9332 36.2696 24.4156 36.2696 26.277C36.2696 26.8986 36.2695 28.553 38.1226 28.553C42.2413 28.553 45.33 25.4491 46.9781 23.5884C49.0375 20.6907 50.8906 18.0014 51.0968 15.5191C51.5087 13.657 51.5087 12.2088 51.5087 11.174C51.5122 7.65535 50.894 5.17233 48.8347 3.31023Z" fill="#363636" fill-opacity="0.4"/>
<path fill-rule="evenodd" clip-rule="evenodd" d="M0.0292358 9.93148V12.0005C0.441105 12.0005 0.647387 12.0005 1.26484 12.2075C1.47043 12.2075 1.88299 12.6215 2.08858 12.8285C2.08858 13.2424 2.29417 13.2424 2.29417 13.4494V25.2422C2.29417 25.4485 2.08858 25.8624 2.08858 26.0694C1.88299 26.0694 1.47043 26.2757 1.26484 26.6896H0.0292358V28.7594H13.4153C14.4447 28.7594 15.2684 28.5517 16.0921 28.1378C16.9159 27.9315 17.7396 27.1029 18.1508 26.6889C18.7689 25.8617 19.1808 24.6199 19.1808 23.3787C19.1808 22.5515 19.1808 21.9312 18.7689 21.3096C18.5633 20.4824 17.9452 20.0685 17.3277 19.4468C16.9159 18.6196 15.8858 17.9987 14.6509 17.9987C13.4153 17.5854 11.5623 17.1715 9.70851 17.1715H7.23729V13.6543C7.23729 13.4473 7.23729 13.2403 7.64916 12.8271L7.85475 12.6201C8.06103 12.2061 8.4729 12.2061 8.88477 12.2061H9.50223C11.1497 12.2061 12.7972 12.6201 13.4153 13.4473C14.4447 13.8613 15.2684 15.1024 16.0921 16.5506L17.9452 15.5164L15.8858 9.93009H0.0292358V9.93148ZM7.23729 20.0692H9.50223C10.7378 20.0692 11.9734 20.2754 12.5909 20.4831C13.4153 21.1047 13.6202 21.9319 13.6202 22.9654C13.6202 23.7926 13.4146 24.4143 13.0028 25.2415C12.7972 25.4478 12.179 25.8617 11.5616 26.0687C11.1497 26.275 10.5316 26.275 9.70851 26.275C8.88477 26.275 8.67918 26.275 8.06103 26.0687C7.64916 26.0687 7.23729 25.4471 7.23729 25.0338V20.0692ZM53.5708 20.2754H57.2777C57.8951 20.4831 58.307 20.6894 58.7188 21.104C58.9244 21.7243 59.1307 22.1375 59.1307 22.9654C59.1307 24.0003 58.9244 25.0345 58.1007 25.4478C57.6888 26.275 56.4532 26.6889 55.012 26.8966C54.3946 26.8966 53.7764 26.6889 53.159 26.6889C52.9534 26.275 52.7471 26.275 52.3352 26.0687C52.1289 25.861 51.9234 25.4471 51.9234 25.2415C51.5115 25.0338 51.5115 24.6199 51.5115 24.4143C51.5115 24.4143 51.5115 24.0003 51.9234 23.7926V22.9654C51.9234 22.5522 51.5115 22.1382 51.3059 21.7243C51.0996 21.104 50.2759 20.6894 49.4521 20.6894C48.6284 20.6894 48.0109 21.311 47.5991 21.9319C47.1872 22.1382 46.9816 22.9654 46.9816 23.7933C46.9816 25.2422 47.8054 26.6896 49.041 27.7245C50.4822 28.7594 52.9534 29.3796 55.8365 29.3796C59.1314 29.3796 61.3963 28.7594 62.8382 27.3105C64.0738 26.2757 64.6913 25.0345 64.6913 23.3794C64.6913 22.1382 64.4857 21.1047 63.662 20.2754C62.8382 19.2419 61.6026 18.828 60.1614 18.6203H60.367C61.3963 18.414 62.2201 17.7931 63.0438 17.1729C63.8683 16.5519 64.0732 15.5178 64.0732 14.4829C64.0732 13.241 63.6613 11.7929 62.2201 10.9657C61.1908 9.93078 59.1314 9.31055 56.8658 9.31055C55.6302 9.31055 54.6009 9.51683 53.7771 9.51683C52.9534 9.93078 52.1296 10.1378 51.3059 10.3447L51.0996 9.93079H48.6284L48.0103 15.5171L50.8933 15.931C51.0989 15.3101 51.3052 14.4829 52.1289 13.448C52.7471 13.241 53.1583 12.6208 53.7764 12.2068C54.3946 11.9999 55.012 11.7929 55.6295 11.7929C57.0714 11.9999 57.8944 12.2068 58.3063 12.8271C58.7182 13.241 58.9244 13.448 58.9244 13.6543C58.9244 13.8606 59.1307 14.2752 59.1307 14.4822C58.9244 15.3094 58.9244 15.9303 58.7188 16.1373C58.1007 16.7582 57.8951 16.9645 57.2777 16.9645C56.8658 17.1715 56.2476 17.5854 55.6302 17.5854H53.5701L53.5708 20.2754Z" fill="#363636"/>
<path fill-rule="evenodd" clip-rule="evenodd" d="M58.5564 3.16338H59.1481V7.61546H58.5564V4.00935L56.2345 7.61546H55.6497V3.16338H56.2345V6.7438L58.5564 3.16338ZM66.7687 7.61546H66.1839V3.16338H66.7687V5.02062H68.9635V3.16338H69.5483V7.61546H68.9635V5.52278H66.7687V7.61546ZM78.5365 7.1133H78.2886C78.183 7.1133 78.0524 7.10427 77.9003 7.0876C77.7399 7.06908 77.582 7.03298 77.4294 6.97995C77.1502 6.88202 76.8939 6.71046 76.6626 6.46459C76.4313 6.21872 76.3153 5.84574 76.3153 5.34497C76.3153 4.84003 76.4334 4.46428 76.6696 4.21632C76.9043 3.96837 77.1648 3.79959 77.4482 3.71069C77.6058 3.65999 77.7558 3.62595 77.9024 3.60928C78.0489 3.59262 78.1774 3.58359 78.2879 3.58359H78.5358V2.90918H79.1206V3.58359H79.3623C79.4721 3.58359 79.6013 3.59123 79.7478 3.60581C79.8944 3.6204 80.0437 3.65304 80.1958 3.70444C80.4806 3.79334 80.7424 3.96142 80.9813 4.20729C81.2217 4.45317 81.3411 4.83239 81.3411 5.34566C81.3411 5.8249 81.2342 6.18607 81.0168 6.43056C80.8008 6.67434 80.5639 6.84729 80.3049 6.94869C80.1291 7.01695 79.9454 7.06292 79.7582 7.08552C79.5846 7.10427 79.4533 7.114 79.3637 7.114H79.122V7.78146H78.5372L78.5365 7.1133ZM78.5365 4.0538H78.3712C77.917 4.0538 77.5912 4.13576 77.3947 4.29898C77.1981 4.4622 77.0689 4.64139 77.0092 4.83587C76.9819 4.92397 76.9628 5.01442 76.9522 5.10605C76.9367 5.26236 76.9357 5.41978 76.9495 5.57626C76.9564 5.65891 76.971 5.74503 76.9967 5.83394C77.0564 6.03744 77.1849 6.22289 77.3822 6.39027C77.5794 6.55766 77.9086 6.6417 78.3712 6.6417H78.5365V4.0538ZM79.2866 6.6424C79.3665 6.6424 79.4561 6.63823 79.554 6.6292C79.6568 6.62016 79.7588 6.60321 79.8589 6.57849C80.075 6.51946 80.2729 6.40069 80.4507 6.22219C80.6285 6.04369 80.7181 5.75128 80.7181 5.34428C80.7181 4.94144 80.6271 4.65111 80.4465 4.47331C80.283 4.30483 80.0783 4.18201 79.8527 4.117C79.7513 4.09131 79.652 4.07464 79.554 4.0663C79.4561 4.05797 79.3665 4.0531 79.2866 4.0531H79.1213V6.6417L79.2866 6.6424ZM89.9411 7.74882C89.2708 7.74465 88.7568 7.53073 88.3985 7.10705C88.0401 6.68268 87.8616 6.11037 87.8616 5.39012C87.8616 4.54624 88.072 3.94198 88.4908 3.57734C88.8893 3.22078 89.4064 3.02563 89.9411 3.03003C90.4974 3.03003 90.9815 3.2127 91.3982 3.57734C91.8136 3.94198 92.0205 4.54624 92.0205 5.39012C92.0205 6.11453 91.8413 6.68823 91.4837 7.11052C91.126 7.53281 90.6113 7.74326 89.9411 7.74326V7.74882ZM89.9411 7.24666C90.446 7.24666 90.8148 7.07302 91.0482 6.72574C91.2815 6.37847 91.3982 5.93256 91.3982 5.39012C91.3982 4.87684 91.317 4.49206 91.1551 4.23577C90.9954 3.97948 90.8162 3.80029 90.6217 3.69819C90.5008 3.63142 90.3696 3.58518 90.2335 3.56136C90.1366 3.54494 90.0386 3.53543 89.9404 3.53289C89.8723 3.53289 89.8008 3.53705 89.7244 3.54539C89.6463 3.55406 89.5694 3.57129 89.4952 3.59678C89.2403 3.66902 89.0083 3.8371 88.7992 4.10242C88.5888 4.36774 88.4832 4.79697 88.4832 5.39012C88.4832 5.49152 88.4901 5.61029 88.5033 5.74642C88.5158 5.88186 88.5415 6.02146 88.579 6.16593C88.6513 6.4375 88.7895 6.68546 88.993 6.9098C89.1979 7.13414 89.5125 7.24666 89.9411 7.24666Z" fill="#363636" fill-opacity="0.4"/>
</svg>
