<svg width="140" height="32" viewBox="0 0 140 32" fill="none" xmlns="http://www.w3.org/2000/svg">
<g clip-path="url(#clip0_93_853)">
<path d="M88.9241 20.0281C86.493 20.0281 84.5148 18.0493 84.5148 15.6188C84.5148 13.1878 86.493 11.2095 88.9241 11.2095C91.3551 11.2095 93.3329 13.1878 93.3329 15.6188C93.3329 18.0736 91.3308 20.0281 88.9241 20.0281ZM88.9241 8.58742C85.0393 8.58742 81.8932 11.734 81.8932 15.6188C81.8932 19.5036 85.0393 22.6497 88.9241 22.6497C92.8089 22.6497 95.9549 19.5036 95.9549 15.6188C95.9549 11.7577 92.8089 8.58742 88.9241 8.58742ZM80.3202 20.3854H80.8922V23.0306H80.3202C77.2934 23.0306 74.8143 20.5521 74.8143 17.5253V5.44137H77.4602V8.96893H80.8679V11.6147H77.4602V17.5491C77.4602 19.0983 78.7472 20.3854 80.3202 20.3854ZM112.543 20.0281C110.112 20.0281 108.134 18.0493 108.134 15.6188C108.134 13.1878 110.112 11.2095 112.543 11.2095C114.974 11.2095 116.952 13.1878 116.952 15.6188C116.928 18.0736 114.95 20.0281 112.543 20.0281ZM112.543 8.58742C108.658 8.58742 105.512 11.734 105.512 15.6188C105.512 19.5036 108.658 22.6497 112.543 22.6497C116.427 22.6497 119.574 19.5036 119.574 15.6188C119.574 11.7577 116.427 8.58742 112.543 8.58742ZM132.778 20.0281C130.346 20.0281 128.368 18.0493 128.368 15.6188C128.368 13.1878 130.346 11.2095 132.777 11.2095C135.208 11.2095 137.187 13.1878 137.187 15.6188C137.187 18.0736 135.185 20.0281 132.778 20.0281ZM132.777 8.58742C128.892 8.58742 125.746 11.734 125.746 15.6188C125.746 19.5036 128.892 22.6497 132.777 22.6497C134.493 22.6497 136.066 22.0296 137.282 21.0049V22.3874H139.808V15.833V15.6183C139.808 11.7572 136.662 8.58742 132.777 8.58742ZM103.224 8.58794H104.487V11.2332H103.224C101.651 11.2332 100.364 12.5208 100.364 14.0933V22.4829H97.7185V14.0933C97.7185 11.0665 100.197 8.58794 103.224 8.58794ZM121.338 5.08413H123.983V22.4349H121.338V5.08413ZM57.2256 14.4505V22.8164H54.5798V14.4505C54.5798 12.8775 53.2928 11.5905 51.7198 11.5905C50.1473 11.5905 48.8597 12.8775 48.8597 14.4505V22.8159H46.2144V14.4505C46.2144 12.8775 44.9269 11.5905 43.3544 11.5905C41.7819 11.5905 40.4944 12.8775 40.4944 14.4505V22.8159H37.8491V14.4505C37.8491 11.4232 40.3276 8.94466 43.3307 8.94466C45.0229 8.94466 46.5004 9.68342 47.5252 10.8755C48.55 9.68342 50.0275 8.94466 51.7203 8.94466C54.7466 8.94466 57.2256 11.4232 57.2256 14.4505ZM66.0437 20.3854C63.6127 20.3854 61.6344 18.4071 61.6344 15.976C61.6344 13.545 63.6132 11.5667 66.0437 11.5667C68.4748 11.5667 70.453 13.5455 70.453 15.976C70.453 18.4071 68.451 20.3854 66.0437 20.3854ZM66.0437 8.94519C62.1352 8.94519 58.9886 12.0912 58.9886 15.976C58.9886 19.8608 62.1352 23.0069 66.02 23.0069C69.9048 23.0069 73.0508 19.8608 73.0508 15.976C73.0746 12.115 69.9285 8.94519 66.0437 8.94519ZM16.184 0.0078125C7.34212 0.0078125 0.192017 7.15792 0.192017 15.9998C0.192017 24.8416 7.34212 31.9923 16.184 31.9923C25.0264 31.9923 32.1765 24.8422 32.1765 15.9998C32.1765 7.20541 25.1214 0.0078125 16.184 0.0078125Z" fill="#363636"/>
<path d="M20.9529 3.93945L16.2101 19.6697L16.1858 19.6934L16.1383 19.6697L11.3955 3.93945L5.27014 24.079H6.41416C6.41416 24.079 7.17719 20.5752 8.44046 18.4782C9.13173 17.3342 10.1802 16.4044 11.586 16.4281C12.587 16.4524 13.445 17.0001 14.5178 18.5019C14.7558 18.8354 15.0418 19.3837 15.3278 19.9082C15.7811 20.7894 16.1621 21.6955 16.1621 21.6955C16.1621 21.6955 17.1631 19.4074 17.8068 18.5019C18.8791 17.0001 19.7371 16.4524 20.7381 16.4281C22.1444 16.4044 23.2167 17.3342 23.8842 18.4782C25.1474 20.5752 25.9105 24.079 25.9105 24.079H27.054L20.9529 3.93945Z" fill="white"/>
</g>
<defs>
<clipPath id="clip0_93_853">
<rect width="139.616" height="32" fill="white" transform="translate(0.192017)"/>
</clipPath>
</defs>
</svg>
