<svg width="16" height="16" viewBox="0 0 16 16" fill="none" xmlns="http://www.w3.org/2000/svg">
<path d="M7.38397 14.1788C7.34153 14.1788 7.29954 14.17 7.26066 14.153C7.22178 14.1359 7.18683 14.1111 7.15803 14.0799L1.06612 7.49021C1.02551 7.44628 0.99859 7.39146 0.988651 7.33247C0.978712 7.27347 0.986187 7.21286 1.01016 7.15805C1.03414 7.10323 1.07357 7.0566 1.12364 7.02385C1.17371 6.9911 1.23223 6.97366 1.29206 6.97366H4.22437C4.26839 6.97367 4.31191 6.98311 4.35197 7.00137C4.39204 7.01962 4.42772 7.04626 4.45661 7.07947L6.49255 9.42175C6.71258 8.95141 7.13852 8.16827 7.88597 7.214C8.99095 5.80323 11.0463 3.72843 14.5627 1.85544C14.6307 1.81925 14.7097 1.80986 14.7843 1.82912C14.8588 1.84838 14.9235 1.89489 14.9654 1.95948C15.0073 2.02406 15.0235 2.10202 15.0108 2.17796C14.998 2.2539 14.9573 2.3223 14.8966 2.36966C14.8831 2.38015 13.5273 3.44784 11.967 5.40351C10.5309 7.2032 8.62191 10.146 7.68255 13.945C7.66605 14.0118 7.62767 14.0711 7.57354 14.1135C7.5194 14.1559 7.45263 14.1789 7.38387 14.1789L7.38397 14.1788Z" fill="#F16319"/>
</svg>
