<svg width="18" height="18" viewBox="0 0 18 18" fill="none" xmlns="http://www.w3.org/2000/svg">
<g clip-path="url(#clip0_40_199)">
<path d="M9.01562 17.25C13.572 17.25 17.2656 13.5563 17.2656 9C17.2656 4.44365 13.572 0.75 9.01562 0.75C4.45928 0.75 0.765625 4.44365 0.765625 9C0.765625 13.5563 4.45928 17.25 9.01562 17.25Z" fill="black"/>
<path d="M13.7884 7.20758L11.1484 4.56758C11.1233 4.54253 11.0928 4.52358 11.0592 4.51221C11.0256 4.50084 10.9899 4.49735 10.9547 4.502C10.9196 4.50666 10.886 4.51933 10.8565 4.53906C10.8271 4.55878 10.8025 4.58501 10.7848 4.61573C10.6714 4.82837 10.6024 5.06188 10.582 5.30205C10.5617 5.54221 10.5905 5.784 10.6666 6.01268L8.9031 7.77623C8.46759 7.55137 7.98559 7.43133 7.4955 7.42568C7.20155 7.41952 6.90929 7.4716 6.63556 7.57891C6.36184 7.68623 6.11206 7.84666 5.90062 8.05096C5.85732 8.09426 5.833 8.15299 5.833 8.21423C5.833 8.27547 5.85732 8.3342 5.90062 8.37751L7.56929 10.0463L4.9161 13.1144C4.87772 13.1585 4.85749 13.2155 4.85951 13.2739C4.86153 13.3323 4.88564 13.3878 4.92697 13.4291C4.9683 13.4705 5.02378 13.4946 5.0822 13.4966C5.14062 13.4987 5.19764 13.4785 5.24175 13.4401L8.30924 10.7867L9.97822 12.4556C10.0215 12.4989 10.0803 12.5232 10.1415 12.5232C10.2027 12.5232 10.2615 12.4989 10.3048 12.4556C10.6615 12.0481 10.8801 11.5381 10.9294 10.9988C10.9787 10.4594 10.8561 9.9183 10.5791 9.45286L12.3427 7.68931C12.5716 7.76448 12.8133 7.79278 13.0534 7.77251C13.2936 7.75224 13.5271 7.68382 13.7402 7.57133C13.771 7.55366 13.7973 7.52914 13.8171 7.49966C13.8368 7.47018 13.8495 7.43654 13.8542 7.40136C13.8589 7.36617 13.8553 7.33039 13.8439 7.29678C13.8325 7.26317 13.8135 7.23265 13.7884 7.20758Z" fill="white"/>
</g>
<defs>
<clipPath id="clip0_40_199">
<rect width="18" height="18" fill="white"/>
</clipPath>
</defs>
</svg>
