<svg width="57" height="41" viewBox="0 0 57 41" fill="none" xmlns="http://www.w3.org/2000/svg">
<g opacity="0.15">
<path fill-rule="evenodd" clip-rule="evenodd" d="M44.8003 11.1243C46.855 8.24568 50.7388 5.14675 56.0261 2.56691C57.4001 1.89648 56.7803 -0.181499 55.2635 0.0103607C44.1543 1.41558 36.9538 6.28098 33.0218 13.5164C31.5593 16.2075 30.6405 19.0718 30.1512 21.9958C29.8286 23.9237 29.7434 25.3705 29.7434 27.0416C29.7434 34.509 35.7969 40.5625 43.2643 40.5625C50.7317 40.5625 56.7853 34.509 56.7853 27.0416C56.7853 19.5741 50.6351 13.5164 43.5677 13.5164C43.9405 12.4927 44.0301 12.2034 44.8003 11.1243ZM15.0542 11.1243C17.1089 8.24568 20.9927 5.14675 26.28 2.56691C27.654 1.89648 27.0342 -0.181499 25.5174 0.0103607C14.4082 1.41558 7.20774 6.28098 3.27568 13.5164C1.81324 16.2075 0.894432 19.0718 0.405125 21.9958C0.0825081 23.9237 -0.00269318 25.3705 -0.00269318 27.0416C-0.00269318 34.509 6.05084 40.5625 13.5182 40.5625C20.9857 40.5625 27.0392 34.509 27.0392 27.0416C27.0392 19.5741 20.8891 13.5164 13.8216 13.5164C14.1945 12.4927 14.284 12.2034 15.0542 11.1243Z" fill="#F16319"/>
</g>
</svg>
