<svg width="42" height="30" viewBox="0 0 42 30" fill="none" xmlns="http://www.w3.org/2000/svg">
<path d="M41.3954 9.36075L30.1104 0.27507C29.6548 -0.0917716 29.0055 -0.0916081 28.55 0.27507L27.114 1.43102L34.5558 7.42255C35.4403 8.13456 35.9476 9.19421 35.9476 10.3298V28.7557C35.9476 29.1918 35.8718 29.6105 35.7337 29.9999H40.6153C41.3024 29.9999 41.8594 29.4428 41.8594 28.7557V10.3299C41.8593 9.95324 41.6887 9.59686 41.3954 9.36075Z" fill="#565656"/>
<path d="M32.9954 9.36075L21.7105 0.27507C21.2549 -0.0917716 20.6055 -0.0916081 20.1501 0.27507L18.7141 1.43111L26.1559 7.42255C27.0404 8.13473 27.5477 9.19437 27.5477 10.3299V28.7558C27.5477 29.1919 27.4719 29.6106 27.3338 30H32.2154C32.9024 30 33.4595 29.4429 33.4595 28.7558V10.3299C33.4593 9.95324 33.2887 9.59694 32.9954 9.36075Z" fill="#565656"/>
<path d="M24.5954 9.36075L13.3104 0.27507C12.8548 -0.0917716 12.2055 -0.0916081 11.75 0.27507L0.463968 9.36075C0.170626 9.59686 0 9.95324 0 10.3299V28.7558C0 29.4429 0.557089 30 1.24417 30H8.99272C9.6798 30 10.2369 29.4429 10.2369 28.7558V23.204C10.2369 21.9398 11.2654 20.9113 12.5296 20.9113C13.7938 20.9113 14.8224 21.9398 14.8224 23.204V28.7558C14.8224 29.4429 15.3795 30 16.0665 30H16.73H18.0442H23.8151C24.5022 30 25.0593 29.4429 25.0593 28.7558V10.3299C25.0593 9.95324 24.8887 9.59694 24.5954 9.36075Z" fill="#F16319"/>
</svg>
